<svg id="Capa_1" enable-background="new 0 0 511.476 511.476" height="512" viewBox="0 0 511.476 511.476" width="512" xmlns="http://www.w3.org/2000/svg"><g><g><path d="m493.561 437.411h-475.646c-5.752 0-10.414-4.663-10.414-10.414v-162.518c0-5.752 4.663-10.414 10.414-10.414h475.646c5.752 0 10.414 4.663 10.414 10.414v162.518c0 5.751-4.662 10.414-10.414 10.414z" fill="#fd6930"/></g><g><path d="m503.978 84.476v171.26h-496.48v-171.26c0-5.75 4.67-10.41 10.42-10.41h475.64c5.75.001 10.42 4.66 10.42 10.41z" fill="#444"/></g><g><path d="m503.978 264.476v162.52c0 5.75-4.67 10.41-10.42 10.41h-20c5.75 0 10.42-4.66 10.42-10.41v-162.52c0-5.75-4.67-10.41-10.42-10.41h20c5.75.001 10.42 4.66 10.42 10.41z" fill="#fd5426"/></g><g><path d="m483.978 255.736v-171.26c0-5.75-4.67-10.41-10.42-10.41h20c5.75 0 10.42 4.66 10.42 10.41v171.26z" fill="#353535"/></g><g><circle cx="255.738" cy="255.736" fill="#fed402" r="92.996"/></g><g><path d="m348.738 255.736c0 51.36-41.64 93-93 93-16.39 0-31.79-4.24-45.16-11.69 8.58 2.62 17.69 4.02 27.12 4.02 51.36 0 92.99-41.64 92.99-93 0-34.98-19.31-65.45-47.86-81.32 38.15 11.6 65.91 47.051 65.91 88.99z" fill="#fac600"/></g><path d="m511.476 84.479c0-9.878-8.037-17.914-17.915-17.914h-69.99c-4.142 0-7.5 3.357-7.5 7.5s3.358 7.5 7.5 7.5h69.99c1.607 0 2.915 1.308 2.915 2.914v163.758h-140.522c-3.849-51.925-47.326-92.996-100.217-92.996s-96.367 41.071-100.217 92.996h-52.283c-4.142 0-7.5 3.357-7.5 7.5s3.358 7.5 7.5 7.5h52.283c3.849 51.925 47.326 92.996 100.217 92.996s96.367-41.072 100.217-92.996h140.521v163.76c0 1.606-1.308 2.914-2.915 2.914h-475.645c-1.607 0-2.915-1.308-2.915-2.914v-163.76h52.738c4.142 0 7.5-3.357 7.5-7.5s-3.358-7.5-7.5-7.5h-52.738v-163.758c0-1.606 1.308-2.914 2.915-2.914h370.823c4.142 0 7.5-3.357 7.5-7.5s-3.358-7.5-7.5-7.5h-370.823c-9.878 0-17.915 8.036-17.915 17.914v342.518c0 9.878 8.037 17.914 17.915 17.914h475.646c9.878 0 17.915-8.036 17.915-17.914zm-255.738 256.754c-47.143 0-85.496-38.354-85.496-85.496s38.354-85.496 85.496-85.496 85.496 38.354 85.496 85.496-38.354 85.496-85.496 85.496z"/></g></svg>