<svg id="Layer_1" enable-background="new 0 0 512 512" viewBox="0 0 512 512" xmlns="http://www.w3.org/2000/svg" xmlns:xlink="http://www.w3.org/1999/xlink"><linearGradient id="SVGID_1_" gradientTransform="matrix(1 0 0 -1 0 514)" gradientUnits="userSpaceOnUse" x1="55.719" x2="456.287" y1="458.287" y2="57.719"><stop offset="0" stop-opacity=".05"/><stop offset="1" stop-opacity=".3"/></linearGradient><g id="Layer_2_00000048473875022765233260000007159044643756256656_"><g id="Flag_rectangle_copy_3"><g id="Australia"><path d="m512 128v256c0 22.1-17.9 40-40 40h-432c-22.1 0-40-17.9-40-40v-256c0-18.9 13.2-35.2 31.7-39.1 2.7-.6 5.5-.9 8.3-.9h432c22.1 0 40 17.9 40 40z" fill="#012169"/><path d="m248.7 88v15.8l-60 32.6-22.6 12.2-12.2 6.7 20.1 11 22.5 12.2 52.1 28.4v20.1h-20.1l-84.8-46.2-12.2-6.7-6.2-3.4-11.4 6.2-12.2 6.7-79.5 43.4h-22.2v-18.9l54.3-29.6 22.5-12.2 20.2-11-12.3-6.7-22.5-12.2-55.7-30.3c1.7-2.7 3.8-5.1 6.1-7.3 5.3-5 11.9-8.5 19.1-10l70.1 38.1 12.2 6.6 11.4 6.2 6.2-3.4 12.2-6.6 77-41.7z" fill="#f2f2f2"/><path d="m146.7 148.7-12.2 6.7 20.1 11 22.5 12.2 71.6 38.9v9.5h-.6l-89-48.4-22.6-12.3-11.1-6-11.4 6.2-22.2 12.1-89 48.4h-2.8v-8.3l73.8-40.2 22.5-12.2 20.1-11-12.2-6.7-22.5-12.2-69.1-37.5c2.3-2.2 4.9-4.1 7.6-5.7l79.5 43.2 14.3 7.8 11.4 6.2 6.2-3.3 19.6-10.7 89-48.4h8.5v5.2l-79.5 43.2z" fill="#da0e15"/><path d="m248.8 136.4h-104.9v-48.4h-42.1v48.4h-101.8v42.1h101.8v48.5h42.1v-48.5h104.9z" fill="#f2f2f2"/><path d="m248.8 148.7h-117.2v-60.7h-17.6v60.7h-114v17.6h114v60.7h17.6v-60.7h117.2z" fill="#da0e15"/><g fill="#f2f2f2"><path d="m124.4 275.5 11.2 28.4 29.3-8.9-15.3 26.5 25.3 17.3-30.3 4.6 2.2 30.5-22.4-20.7-22.5 20.7 2.2-30.5-30.2-4.6 25.2-17.3-15.2-26.5 29.2 8.9z"/><path d="m379.8 123.5 5.2 13.2 13.5-4.2-7.1 12.3 11.7 8-14 2.1 1 14.1-10.3-9.6-10.4 9.6 1-14.1-13.9-2.1 11.6-8-7-12.3 13.5 4.2z"/><path d="m448.5 188.5 5.2 13.2 13.5-4.2-7 12.3 11.6 8-13.9 2.1 1 14.1-10.4-9.6-10.3 9.6 1-14.1-14-2.1 11.7-8-7-12.3 13.5 4.2z"/><path d="m325.1 218.7 5.2 13.1 13.5-4.1-7 12.2 11.6 8-13.9 2.1 1 14.1-10.4-9.6-10.3 9.6 1-14.1-14-2.1 11.7-8-7-12.2 13.5 4.1z"/><path d="m379.8 342 5.2 13.2 13.5-4.2-7.1 12.3 11.7 7.9-14 2.2 1 14.1-10.3-9.6-10.4 9.6 1-14.1-13.9-2.2 11.6-7.9-7-12.3 13.5 4.2z"/><path d="m422 262.2 3.7 9.3 9.6-2.9-5 8.7 8.3 5.7-10 1.5.8 10-7.4-6.8-7.4 6.8.7-10-9.9-1.5 8.3-5.7-5-8.7 9.6 2.9z"/></g><path d="m502.9 102.6c-7.6-9.3-19-14.6-30.9-14.6h-432c-22.1 0-40 17.9-40 40v256c0 9.4 3.3 18.5 9.3 25.6.8 1 1.7 1.9 2.6 2.8 7.5 7.5 17.6 11.6 28.1 11.6h432c22.1 0 40-17.9 40-40v-256c0-9.3-3.2-18.3-9.1-25.4zm-462.9 297.4c-2.5 0-5-.6-7.2-1.7-1.5-.7-2.8-1.7-3.9-2.8-3.1-3-4.8-7.1-4.8-11.3v-256.3c0-4.3 1.7-8.3 4.8-11.3 1.2-1.2 2.5-2.1 4-2.9 2.2-1.1 4.7-1.7 7.1-1.7h432.2c7.2 0 13.5 4.9 15.4 11.9-11 187-134 253.7-200.2 276.1z" fill="url(#SVGID_1_)"/></g></g></g></svg>