<svg id="Capa_1" enable-background="new 0 0 512 512" height="512" viewBox="0 0 512 512" width="512" xmlns="http://www.w3.org/2000/svg"><g><g><g><path d="m105.098 280.865c-53.902 0-97.598 43.696-97.598 97.598v69.682c0 7.374 5.978 13.352 13.352 13.352h168.492c7.374 0 13.352-5.978 13.352-13.352v-69.682c0-53.902-43.696-97.598-97.598-97.598z" fill="#d9b1ee"/><path d="m135.632 285.733c-38.956 12.811-67.076 49.49-67.076 92.73v83.032h-47.704c-7.374 0-13.352-5.978-13.352-13.352v-68.614c0-54.057 44.229-99.038 98.286-98.668 10.42.072 20.443 1.777 29.846 4.872z" fill="#cb97e7"/><path d="m175.811 390.344v42.558c0 38.995-31.196 71.315-70.191 71.594-39.3.282-71.237-31.482-71.237-70.708v-43.445c0-.022 0-.043 0-.065.003-3.504 2.892-6.324 6.396-6.324h120.052 8.584c3.504 0 6.393 2.82 6.396 6.324z" fill="#ffdfcf"/><path d="m124.563 501.746c-6.015 1.745-12.369 2.708-18.94 2.752-39.304.278-71.239-31.483-71.239-70.71v-43.445c0-.022 0-.043 0-.065.003-3.504 2.892-6.324 6.396-6.324h32.96c-.2 2.101-.295 4.236-.295 6.389v43.445c0 32.248 21.587 59.461 51.118 67.958z" fill="#ffcebf"/></g><g><path d="m475.872 164.291c15.811 0 28.628-12.817 28.628-28.628 0-11.363-6.62-21.18-16.214-25.804 6.472-5.249 10.611-13.261 10.611-22.242 0-15.811-12.817-28.628-28.628-28.628-.418 0-.832.014-1.245.032.808-2.647 1.245-5.455 1.245-8.367 0-15.811-12.817-28.628-28.628-28.628-7.987 0-15.206 3.274-20.399 8.549-2.586-13.152-14.174-23.075-28.085-23.075-13.91 0-25.499 9.923-28.085 23.075-5.193-5.275-12.412-8.549-20.399-8.549-15.811 0-28.628 12.817-28.628 28.628 0 2.911.438 5.72 1.245 8.367-.413-.018-.828-.032-1.245-.032-15.811 0-28.628 12.817-28.628 28.628 0 8.982 4.139 16.994 10.611 22.242-9.594 4.624-16.214 14.441-16.214 25.804 0 15.811 12.817 28.628 28.628 28.628" fill="#7a8c98"/><path d="m394.498 161.763c-.019.414-.028.828-.028 1.251 0 .433.009.856.028 1.279h-84.063c-15.812 0-28.623-12.811-28.623-28.623 0-11.363 6.622-21.183 16.216-25.811-6.471-5.249-10.62-13.253-10.62-22.236 0-15.812 12.821-28.632 28.632-28.632.414 0 .828.019 1.242.038-.8-2.653-1.242-5.456-1.242-8.372 0-15.812 12.821-28.623 28.623-28.623 5.54 0 10.695 1.571 15.069 4.289-1.439 3.405-2.229 7.158-2.229 11.09 0 7.986 3.273 15.21 8.55 20.402-13.159 2.587-23.073 14.175-23.073 28.087s9.914 25.5 23.073 28.087c-5.277 5.192-8.55 12.407-8.55 20.393 0 15.812 12.811 28.632 28.623 28.632 2.917 0 5.72-.442 8.372-1.251z" fill="#596c76"/><path d="m479.338 195.544h-172.365c-11.368 0-20.583-9.215-20.583-20.583 0-11.368 9.215-20.583 20.583-20.583h172.365c11.368 0 20.583 9.215 20.583 20.583 0 11.368-9.215 20.583-20.583 20.583z" fill="#ffcebf"/><path d="m469.785 154.374v32c0 42.318-34.304 76.632-76.632 76.632-42.318 0-76.623-34.314-76.623-76.632v-32c15.765 0 28.548-12.783 28.548-28.548 0-4.854-1.213-9.425-3.358-13.423 1.279.169 2.577.273 3.904.273 12.952 0 23.882-8.635 27.372-20.458 5.164 5.155 12.294 8.334 20.157 8.334 7.873 0 14.993-3.179 20.157-8.334 3.499 11.824 14.429 20.458 27.381 20.458 1.317 0 2.624-.103 3.894-.273-2.135 3.998-3.349 8.569-3.349 13.423.001 15.765 12.784 28.548 28.549 28.548z" fill="#ffdfcf"/><path d="m414.316 260.044c-6.725 1.928-13.827 2.963-21.164 2.963-42.318 0-76.623-34.314-76.623-76.632v-32c15.765 0 28.548-12.783 28.548-28.548 0-4.854-1.213-9.425-3.358-13.423 1.279.169 2.577.273 3.904.273 4.778 0 9.284-1.176 13.235-3.255v76.952c0 34.973 23.43 64.489 55.458 73.67z" fill="#ffcebf"/></g><g><path d="m182.722 191.798c10.487 22.723 35.133 35.349 59.701 30.583l13.914-2.699c6.537-1.268 10.755-7.662 9.346-14.171l-5.808-26.844c-1.294-5.98-6.918-9.998-12.994-9.284l-19.191 2.255c-8.52-27.528-8.52-56.989 0-84.518l19.191 2.255c6.076.714 11.701-3.305 12.994-9.284l5.808-26.844c1.408-6.509-2.809-12.903-9.346-14.171l-13.914-2.699c-24.568-4.766-49.215 7.86-59.701 30.583-18.278 39.606-18.278 85.233 0 124.838z" fill="#ed74b7"/><path d="m203.455 215.237c-8.832-5.466-16.143-13.484-20.732-23.433-9.136-19.799-13.704-41.111-13.704-62.423-.007-21.305 4.561-42.617 13.704-62.423 10.486-22.719 35.136-35.348 59.701-30.582l13.916 2.701c6.534 1.273 10.748 7.665 9.348 14.17l-.382 1.768-5.268-1.025c-24.565-4.766-49.215 7.863-59.701 30.582-9.143 19.806-13.718 41.111-13.711 62.416 0 21.312 4.568 42.624 13.704 62.423.933 2.022 1.973 3.967 3.125 5.826z" fill="#e759aa"/></g><g><path d="m311.232 469.837c-10.487 22.723-35.133 35.349-59.701 30.583l-13.914-2.699c-6.537-1.268-10.755-7.662-9.346-14.171l5.808-26.844c1.294-5.98 6.918-9.998 12.994-9.284l19.191 2.255c8.52-27.528 8.52-56.989 0-84.518l-19.191 2.255c-6.076.714-11.701-3.305-12.994-9.284l-5.808-26.844c-1.408-6.509 2.809-12.903 9.346-14.171l13.914-2.699c24.568-4.766 49.215 7.86 59.701 30.583 18.278 39.606 18.278 85.233 0 124.838z" fill="#01c0fa"/><g fill="#08a9f1"><path d="m246.158 483.546c-1.41 6.51 2.81 12.9 9.35 14.17l13.91 2.7c.46.09.92.17 1.38.25-6.25 1.06-12.76 1.01-19.27-.25l-13.92-2.7c-6.53-1.27-10.75-7.66-9.34-14.17l5.81-26.84c1.29-5.98 6.91-10 12.99-9.29l19.19 2.26c-6.08-.72-13 1.05-14.29 7.03z"/><path d="m266.258 365.156-19.19 2.25c-6.08.72-11.7-3.3-12.99-9.28l-5.81-26.84c-1.41-6.51 2.81-12.91 9.34-14.17l13.92-2.7c6.51-1.26 13.02-1.31 19.27-.25-.46.08-.92.16-1.38.25l-13.91 2.7c-6.54 1.26-10.76 7.66-9.35 14.17l5.81 26.84c1.29 5.98 8.21 7.74 14.29 7.03z"/><path d="m278.818 449.676h-12.56c4.26-13.76 6.39-28.01 6.39-42.26s-2.13-28.5-6.39-42.26h12.56c3.189 0 6.007 2.125 6.833 5.205 3.257 12.133 4.886 24.594 4.886 37.055s-1.629 24.922-4.886 37.055c-.826 3.08-3.644 5.205-6.833 5.205z"/></g></g></g><g><path d="m76.919 452.381c7.769 7.769 17.974 11.654 28.18 11.654 10.205 0 20.41-3.885 28.179-11.654 2.929-2.929 2.929-7.678 0-10.606-2.929-2.929-7.678-2.929-10.606 0-9.689 9.689-25.456 9.69-35.146 0-2.929-2.929-7.678-2.929-10.606 0-2.931 2.928-2.931 7.677-.001 10.606z"/><path d="m105.101 273.359c-57.952 0-105.1 47.147-105.1 105.1v69.68c0 11.502 9.353 20.86 20.85 20.86h14.385c3.746 7.411 8.682 14.262 14.751 20.287 14.766 14.661 34.318 22.714 55.114 22.714.191 0 .383-.001.574-.002 29.972-.215 56.013-17.685 68.946-43h14.719c11.502 0 20.86-9.358 20.86-20.86v-69.68c0-57.952-47.147-105.099-105.099-105.099zm90.099 174.779c0 3.231-2.629 5.86-5.86 5.86h-8.893c1.852-6.727 2.863-13.798 2.863-21.1v-42.62c0-7.625-6.231-13.83-13.89-13.83h-84.239c-4.142 0-7.5 3.358-7.5 7.5s3.358 7.5 7.5 7.5h83.13v41.45c0 35.097-28.146 63.852-62.743 64.1-.156.002-.309.002-.464.002-16.809 0-32.614-6.51-44.548-18.359-12.042-11.957-18.675-27.886-18.675-44.853v-42.34h10.06c4.142 0 7.5-3.358 7.5-7.5s-3.358-7.5-7.5-7.5h-11.16c-7.642 0-13.877 6.194-13.9 13.89v43.45c0 6.922.91 13.698 2.64 20.21h-8.67c-3.226 0-5.85-2.629-5.85-5.86v-69.68c0-49.681 40.419-90.1 90.1-90.1s90.1 40.419 90.1 90.1v69.68z"/><path d="m85.982 426.217c4.142 0 7.5-3.358 7.5-7.5v-14.461c0-4.142-3.358-7.5-7.5-7.5s-7.5 3.358-7.5 7.5v14.461c0 4.142 3.358 7.5 7.5 7.5z"/><path d="m124.216 426.217c4.142 0 7.5-3.358 7.5-7.5v-14.461c0-4.142-3.358-7.5-7.5-7.5s-7.5 3.358-7.5 7.5v14.461c0 4.142 3.358 7.5 7.5 7.5z"/><path d="m511.999 135.66c0-10.462-4.62-20.341-12.275-27.115 4.22-5.924 6.582-13.028 6.675-20.461.052-4.142-3.264-7.541-7.405-7.593-4.137-.079-7.541 3.264-7.593 7.406-.079 6.277-2.936 12.16-7.839 16.141-1.993 1.619-3.021 4.144-2.722 6.694s1.881 4.77 4.194 5.885c7.269 3.501 11.965 10.977 11.965 19.043 0 5.233-1.954 10.226-5.369 14.055-3.714-1.816-7.884-2.838-12.29-2.838h-9.507c-.016 0-.032-.002-.048-.002-11.605 0-21.048-9.442-21.048-21.048 0-3.452.852-6.872 2.464-9.889 1.325-2.481 1.151-5.496-.452-7.808-1.604-2.312-4.362-3.534-7.154-3.16-1.031.137-2.008.207-2.903.207-9.258 0-17.56-6.204-20.19-15.087-.75-2.535-2.779-4.487-5.342-5.14-2.562-.652-5.277.093-7.148 1.961-3.967 3.96-9.244 6.142-14.858 6.142s-10.891-2.181-14.858-6.142c-1.871-1.869-4.59-2.613-7.152-1.959-2.562.653-4.591 2.608-5.34 5.145-2.62 8.879-10.918 15.081-20.179 15.081-.907 0-1.861-.068-2.919-.208-2.782-.372-5.552.854-7.153 3.169s-1.771 5.331-.44 7.811c1.637 3.052 2.467 6.375 2.467 9.878 0 11.606-9.442 21.048-21.048 21.048-.016 0-.032.002-.048.002h-9.509c-4.334 0-8.515.982-12.299 2.829-3.411-3.829-5.363-8.819-5.363-14.046 0-8.067 4.699-15.542 11.973-19.042 2.314-1.114 3.898-3.335 4.197-5.886s-.729-5.078-2.724-6.696c-4.979-4.04-7.836-10.023-7.836-16.415 0-11.651 9.478-21.13 21.13-21.13.289 0 .585.007.875.021 2.431.122 4.783-.957 6.283-2.884s1.968-4.463 1.255-6.799c-.605-1.983-.913-4.062-.913-6.179 0-11.645 9.475-21.12 21.12-21.12 5.708 0 11.054 2.24 15.052 6.308 1.948 1.983 4.836 2.723 7.502 1.926 2.665-.799 4.668-3.007 5.205-5.736 1.939-9.867 10.657-17.029 20.728-17.029 10.072 0 18.786 7.159 20.72 17.023.536 2.731 2.539 4.941 5.204 5.741s5.555.058 7.505-1.927c3.998-4.067 9.343-6.307 15.051-6.307 11.651 0 21.13 9.475 21.13 21.12 0 2.098-.311 4.176-.922 6.176-.714 2.334-.247 4.87 1.25 6.796 1.498 1.928 3.845 2.995 6.278 2.889 3.943-.194 7.832.766 11.214 2.678 3.605 2.038 8.182.767 10.22-2.839s.768-8.182-2.839-10.22c-3.193-1.805-6.652-3.104-10.237-3.861.024-.539.036-1.079.036-1.62 0-19.916-16.208-36.12-36.13-36.12-5.977 0-11.722 1.437-16.848 4.147-6.223-11.252-18.224-18.676-31.632-18.676-13.404 0-25.409 7.426-31.637 18.68-5.128-2.712-10.875-4.15-16.853-4.15-19.917 0-36.12 16.204-36.12 36.12 0 .54.012 1.079.035 1.616-16.352 3.449-28.665 17.991-28.665 35.354 0 7.611 2.364 14.881 6.671 20.924-7.658 6.773-12.281 16.652-12.281 27.116 0 8.919 3.321 17.435 9.127 23.977-2.955 4.519-4.545 9.797-4.545 15.32 0 15.489 12.597 28.09 28.08 28.09h3.723c7.757 38.431 41.779 67.459 82.457 67.459 40.683 0 74.709-29.028 82.467-67.459h3.721c7.499 0 14.55-2.921 19.853-8.225 5.306-5.305 8.228-12.359 8.228-19.865 0-5.645-1.68-10.902-4.558-15.309 5.812-6.542 9.136-15.062 9.136-23.988zm-205.028 52.387c-7.212 0-13.08-5.872-13.08-13.09 0-3.492 1.361-6.776 3.833-9.248 2.472-2.471 5.755-3.833 9.247-3.833h2.058v24.497c0 .561.031 1.115.042 1.673h-2.1zm155.313-1.673c0 38.119-31.013 69.132-69.133 69.132-38.114 0-69.123-31.013-69.123-69.132v-25.285c16.29-3.46 28.548-17.957 28.548-35.263 0-2.094-.184-4.181-.544-6.233 9.803-1.798 18.468-7.64 23.854-15.924 5.232 2.863 11.132 4.383 17.265 4.383 6.135 0 12.036-1.522 17.269-4.386 5.392 8.285 14.059 14.127 23.859 15.926-.36 2.054-.544 4.141-.544 6.234 0 17.306 12.258 31.803 28.548 35.263v25.285zm26.303-2.159c-2.471 2.471-5.755 3.832-9.247 3.832h-2.098c.011-.559.042-1.112.042-1.673v-24.497h2.056c7.213 0 13.081 5.868 13.081 13.081 0 3.497-1.361 6.785-3.834 9.257z"/><path d="m372.439 177.547c4.143 0 7.5-3.358 7.5-7.5v-15.67c0-4.142-3.357-7.5-7.5-7.5s-7.5 3.358-7.5 7.5v15.67c0 4.142 3.357 7.5 7.5 7.5z"/><path d="m413.87 177.547c4.143 0 7.5-3.358 7.5-7.5v-15.67c0-4.142-3.357-7.5-7.5-7.5s-7.5 3.358-7.5 7.5v15.67c.001 4.142 3.358 7.5 7.5 7.5z"/><path d="m412.642 195.474c-10.747 10.745-28.229 10.745-38.973 0-2.93-2.929-7.678-2.929-10.607 0s-2.929 7.678 0 10.606c8.298 8.297 19.193 12.445 30.093 12.445 10.896 0 21.797-4.149 30.093-12.444 2.93-2.929 2.93-7.678.001-10.607-2.93-2.927-7.679-2.928-10.607 0z"/><path d="m288.347 248.759c-33.736-9.121-82.589-7.344-129.833-5.625-52.45 1.907-106.684 3.88-120.771-11.386-2.59-2.807-3.554-6.186-3.033-10.637.795-6.801 4.094-12.148 10.083-16.346 28.737-20.14 108.062-7.311 136.203-.667l.035-.15c4.571 6.68 10.415 12.419 17.255 16.875 3.469 2.26 8.116 1.281 10.378-2.19 2.261-3.47 1.28-8.117-2.19-10.378-7.381-4.809-13.24-11.587-16.944-19.6-8.64-18.715-13.02-38.658-13.02-59.276s4.38-40.561 13.019-59.276c9.07-19.645 30.233-30.483 51.462-26.361l13.927 2.702c1.157.223 2.153.89 2.805 1.877.655.992.878 2.179.625 3.344l-5.798 26.831c-.483 2.221-2.553 3.696-4.794 3.434l-19.19-2.26c-3.594-.42-6.972 1.777-8.041 5.231-4.463 14.415-6.726 29.38-6.726 44.477s2.263 30.062 6.726 44.478c1.069 3.454 4.448 5.654 8.042 5.231l19.182-2.26c2.257-.26 4.318 1.213 4.8 3.425l5.8 26.844c.251 1.159.03 2.342-.622 3.332-.653.991-1.655 1.662-2.816 1.888l-13.921 2.7c-1.717.333-3.505.574-5.315.716-4.13.322-7.216 3.932-6.893 8.061.307 3.931 3.592 6.916 7.469 6.916.196 0 .394-.008.592-.023 2.374-.186 4.731-.503 7.004-.944l13.924-2.7c5.157-1.003 9.589-3.972 12.48-8.358s3.87-9.628 2.759-14.758l-5.802-26.849c-2.13-9.798-11.245-16.305-21.206-15.146l-12.85 1.514c-2.891-11.117-4.353-22.548-4.353-34.065 0-11.518 1.462-22.948 4.353-34.064l12.857 1.514c9.952 1.166 19.069-5.349 21.201-15.155l5.799-26.836c1.113-5.141.131-10.39-2.768-14.78-2.895-4.385-7.327-7.348-12.474-8.341l-13.919-2.7c-28.03-5.446-55.966 8.867-67.939 34.799-9.556 20.7-14.401 42.759-14.401 65.563 0 19.898 3.691 39.228 10.98 57.586-29.24-5.723-103.732-17.304-136.3 5.511-9.565 6.702-15.076 15.749-16.379 26.89-1.039 8.872 1.285 16.459 6.908 22.553 18.764 20.335 71.395 18.421 132.34 16.204 46.128-1.677 93.829-3.412 125.373 5.116 43.247 11.694 79.79 37.118 102.897 71.592 20.337 30.341 28.492 65.586 21.815 94.282-9.421 40.491-45.231 60.069-96.891 53.856 2.201-3.098 4.146-6.434 5.787-9.99 19.229-41.665 19.229-89.458 0-131.123-11.966-25.93-39.902-40.239-67.938-34.803l-13.914 2.699c-5.158 1-9.592 3.967-12.485 8.353s-3.874 9.63-2.763 14.766l5.808 26.844c2.123 9.806 11.238 16.322 21.2 15.146l12.854-1.51c5.836 22.405 5.836 45.725 0 68.131l-12.854-1.511c-9.964-1.17-19.078 5.341-21.2 15.147l-5.808 26.844c-1.111 5.136-.13 10.38 2.763 14.766s7.327 7.353 12.485 8.353l13.914 2.699c3.977.771 7.95 1.145 11.877 1.145 13.71 0 26.84-4.568 37.471-12.701 11.092 1.986 21.601 2.987 31.495 2.987 20.013 0 37.523-4.058 52.303-12.148 20.85-11.414 34.856-30.278 40.504-54.552 7.602-32.667-1.357-72.306-23.965-106.034-25.119-37.48-64.696-65.081-111.438-77.719zm-35.388 244.296-13.915-2.699c-1.165-.226-2.166-.896-2.82-1.887s-.875-2.175-.624-3.335l5.808-26.843c.442-2.043 2.227-3.453 4.267-3.453.172 0 .346.01.521.031l19.191 2.255c3.59.421 6.971-1.778 8.04-5.231 9.005-29.097 9.005-59.856 0-88.952-1.069-3.454-4.455-5.658-8.04-5.231l-19.191 2.255c-2.256.264-4.309-1.207-4.789-3.421l-5.808-26.844c-.251-1.16-.029-2.345.624-3.335s1.655-1.661 2.82-1.887l13.915-2.699c21.231-4.121 42.397 6.721 51.463 26.363 17.385 37.671 17.385 80.881 0 118.552-9.064 19.64-30.22 30.483-51.462 26.361z"/></g></g></svg>