<svg id="Layer_1" viewBox="0 0 512 512" xmlns="http://www.w3.org/2000/svg" data-name="Layer 1"><g fill-rule="evenodd"><path d="m60.48 276.565 3.515-91.531c.793-20.381-30.926-23.272-34.158-3.062l-16.667 104.627c-3.288 20.693 2.211 40.054 17.036 54.879l79.909 79.909c7.143 7.143 10.488 16.072 9.779 26.135l-.992 14.23h113.33l-.794-64.999c-.17-16.214-5.754-30.16-17.234-41.641l-23.528-23.528c-7.653-7.653-15.959-12.444-26.391-15.25l-11.395-3.033-52.129-52.129c-14.343-14.343-39.146-4.989-40.28 15.392z" fill="#e2b698"/><path d="m60.48 276.565 3.515-91.531c.397-10.148-7.257-15.959-15.449-16.753-1.928 2.154-3.289 4.932-3.855 8.39l-16.667 104.627c-3.288 20.693 2.211 40.054 17.036 54.879l79.909 79.909c7.143 7.143 9.893 16.044 9.779 26.135l-.227 19.531h97.71l-.794-64.999c-.17-16.214-5.754-30.16-17.234-41.641l-23.528-23.528c-7.653-7.653-15.959-12.444-26.391-15.25l-11.395-3.033-52.129-52.129c-14.343-14.343-39.146-4.989-40.28 15.392z" fill="#efc9ae"/><path d="m60.48 276.537.992-26.249c-.907.765-1.786 1.559-2.636 2.409-13.861 13.833-13.861 36.51 0 50.372l16.583 16.583 6.095 6.094 26.192 26.192c2.353 2.353 6.151 2.353 8.476 0 2.353-2.353 2.353-6.151 0-8.476l-32.287-32.315-16.554-16.554c-4.932-4.932-7.229-11.537-6.86-18.029v-.028zm.227-2.183c-.029.198-.057.397-.085.624.028-.198.028-.397.057-.567l.029-.057zm-.227 2.126v.057z" fill="#e2b698"/><path d="m118.165 502.005h114.803c6.69 0 12.189-5.471 12.189-12.161v-20.806c0-6.69-5.499-12.161-12.189-12.161h-114.803c-6.69 0-12.161 5.471-12.161 12.161v20.806c0 6.69 5.471 12.161 12.161 12.161z" fill="#1b6fab"/><path d="m236.115 501.58c5.188-1.389 9.042-6.151 9.042-11.736v-20.806c0-6.69-5.499-12.161-12.189-12.161h-102.359c-5.159 1.389-9.014 6.151-9.014 11.735v20.806c0 6.69 5.471 12.161 12.161 12.161h102.359z" fill="#3589c9"/><path d="m451.548 276.565-3.543-91.531c-.765-20.381 30.955-23.272 34.158-3.062l16.667 104.627c3.288 20.693-2.211 40.054-17.036 54.879l-79.909 79.909c-7.115 7.143-10.46 16.072-9.779 26.135l.992 14.23h-113.301l.766-64.999c.198-16.214 5.783-30.16 17.234-41.641l23.556-23.528c7.625-7.653 15.959-12.444 26.391-15.25l11.395-3.033 52.129-52.129c14.315-14.343 39.146-4.989 40.28 15.392z" fill="#e2b698"/><path d="m451.548 276.565-3.543-91.531c-.369-10.148 7.285-15.959 15.477-16.753 1.899 2.154 3.289 4.932 3.827 8.39l16.667 104.627c3.316 20.693-2.211 40.054-17.008 54.879l-79.937 79.909c-7.115 7.143-9.893 16.044-9.751 26.135l.227 19.531h-97.71l.766-64.999c.198-16.214 5.783-30.16 17.234-41.641l23.556-23.528c7.625-7.653 15.959-12.444 26.391-15.25l11.395-3.033 52.129-52.129c14.315-14.343 39.146-4.989 40.28 15.392z" fill="#efc9ae"/><path d="m451.548 276.537-1.021-26.249c.907.765 1.786 1.559 2.636 2.409 13.861 13.833 13.861 36.51 0 50.372l-16.554 16.583-6.095 6.094-26.192 26.192c-2.353 2.353-6.151 2.353-8.504 0-2.325-2.353-2.325-6.151 0-8.476l32.315-32.315 16.554-16.554c4.932-4.932 7.2-11.537 6.86-18.029v-.028zm-.227-2.183c.028.198.057.397.085.624-.028-.198-.057-.397-.085-.567zm.227 2.126v.057z" fill="#e2b698"/><path d="m393.863 502.005h-114.832c-6.69 0-12.161-5.471-12.161-12.161v-20.806c0-6.69 5.471-12.161 12.161-12.161h114.832c6.69 0 12.161 5.471 12.161 12.161v20.806c0 6.69-5.471 12.161-12.161 12.161z" fill="#1b6fab"/><path d="m275.885 501.58c-5.188-1.389-9.014-6.151-9.014-11.736v-20.806c0-6.69 5.471-12.161 12.161-12.161h102.359c5.188 1.389 9.014 6.151 9.014 11.735v20.806c0 6.69-5.471 12.161-12.161 12.161h-102.359z" fill="#3589c9"/><path d="m327.816 134.209c-2.268-62.334-141.335-62.334-143.603 0v56.069h143.603z" fill="#cd212d"/><path d="m327.816 134.209c-1.021-27.638-28.885-43.002-59.811-46.148-30.926 3.146-58.791 18.51-59.811 46.148v56.069h119.622z" fill="#ee2b39"/><path d="m417.475 203.431c-2.268-62.334-141.335-62.334-143.603 0v33.562h143.603z" fill="#0f9347"/><path d="m417.475 203.431c-.992-27.638-28.856-43.001-59.782-46.148-30.926 3.146-58.819 18.51-59.811 46.148v33.562h119.593z" fill="#3cb54b"/><path d="m238.128 203.431c-2.268-62.334-141.335-62.334-143.604 0v33.562h143.604z" fill="#f2992c"/><path d="m238.128 203.431c-.992-27.638-28.857-43.001-59.783-46.148-30.926 3.146-58.819 18.51-59.811 46.148v33.562h119.594z" fill="#faa845"/><path d="m327.816 266.332c-2.268-62.334-141.335-62.334-143.603 0v33.562h143.603z" fill="#03b1eb"/><path d="m327.816 266.332c-1.021-27.638-28.885-43.001-59.811-46.148-30.926 3.146-58.791 18.51-59.811 46.148v33.562h119.622z" fill="#11bef7"/><path d="m256.014 148.865c-20.976 0-37.984 17.008-37.984 37.984s17.008 37.956 37.984 37.956 37.956-17.008 37.956-37.956-17.008-37.984-37.956-37.984zm0-132.123c-20.976 0-37.984 17.008-37.984 37.956s17.008 37.984 37.984 37.984 37.956-17.008 37.956-37.984-17.008-37.956-37.956-37.956zm89.66 69.222c-20.948 0-37.956 17.008-37.956 37.984s17.008 37.956 37.956 37.956 37.984-17.008 37.984-37.956-17.008-37.984-37.984-37.984zm-179.348 0c-20.948 0-37.956 17.008-37.956 37.984s17.008 37.956 37.956 37.956 37.984-17.008 37.984-37.956-17.008-37.984-37.984-37.984z" fill="#e2b698"/><path d="m264.263 223.898c17.008-3.77 29.707-18.936 29.707-37.049s-12.699-33.307-29.707-37.077c-17.008 3.77-29.735 18.935-29.735 37.077s12.728 33.279 29.735 37.049zm0-206.249c-17.008 3.77-29.735 18.936-29.735 37.049s12.728 33.307 29.735 37.077c17.008-3.77 29.707-18.935 29.707-37.077s-12.699-33.279-29.707-37.049zm89.66 69.222c-16.979 3.77-29.707 18.936-29.707 37.077s12.728 33.279 29.707 37.049c17.008-3.77 29.736-18.936 29.736-37.049s-12.728-33.307-29.736-37.077zm-179.348 0c-16.979 3.77-29.707 18.936-29.707 37.077s12.728 33.279 29.707 37.049c17.008-3.77 29.735-18.936 29.735-37.049s-12.728-33.307-29.735-37.077z" fill="#efc9ae"/><path d="m72.244 79.728 9.326 18.283 20.268 3.231-14.513 14.513 3.231 20.268-18.312-9.298-18.283 9.298 3.203-20.268-14.514-14.513 20.268-3.231zm367.512 0-9.326 18.283-20.268 3.231 14.513 14.513-3.203 20.268 18.284-9.298 18.312 9.298-3.231-20.268 14.513-14.513-20.268-3.231zm-88.384-69.733-8.618 16.923-18.765 2.976 13.436 13.465-2.976 18.765 16.923-8.617 16.951 8.617-2.977-18.765 13.436-13.465-18.765-2.976-8.646-16.923zm-190.744 0 8.646 16.923 18.765 2.976-13.436 13.465 2.976 18.765-16.951-8.617-16.923 8.617 2.948-18.765-13.436-13.465 18.793-2.976 8.617-16.923z" fill="#ffcb5b"/></g><path d="m88.533 203.217c-.003.071-.004.143-.004.214v33.59c0 3.311 2.684 5.995 5.995 5.995h91.164c-4.576 6.834-7.182 14.614-7.495 23.094-.003.074-.004.147-.004.221v33.59c0 3.311 2.684 5.995 5.995 5.995h143.631c3.312 0 5.995-2.684 5.995-5.995v-33.59c0-.074 0-.147-.004-.221-.312-8.48-2.918-16.26-7.494-23.095h91.163c3.312 0 5.995-2.684 5.995-5.995v-33.59c0-.071 0-.143-.004-.214-.819-22.892-18.285-40.714-46.499-48.447 7.82-7.939 12.657-18.824 12.657-30.822 0-24.25-19.717-43.979-43.951-43.979-13.786 0-26.103 6.389-34.167 16.359-6.844-4.621-15.013-8.257-24.205-10.78 7.825-7.939 12.664-18.824 12.664-30.821 0-24.25-19.729-43.979-43.979-43.979s-43.951 19.729-43.951 43.979c0 11.998 4.837 22.884 12.658 30.823-9.184 2.522-17.352 6.154-24.205 10.771-8.064-9.965-20.379-16.351-34.162-16.351-24.234 0-43.951 19.729-43.951 43.979 0 11.998 4.837 22.883 12.657 30.822-28.213 7.733-45.68 25.555-46.499 48.447zm11.986.325c.908-23.467 25.051-35.672 47.984-39.433 5.452 2.429 11.479 3.79 17.822 3.79s12.368-1.361 17.818-3.789c11.554 1.882 21.685 5.471 29.637 10.496-1.129 3.889-1.746 7.994-1.746 12.242 0 11.998 4.838 22.885 12.66 30.824-10.998 3.017-20.366 7.565-27.748 13.354h-96.426v-27.484zm187.456-16.693c0 17.623-14.351 31.96-31.989 31.96s-31.961-14.337-31.961-31.96 14.338-31.989 31.961-31.989 31.989 14.351 31.989 31.989zm33.845 107.079h-131.64v-27.48c.937-23.467 25.07-35.676 47.986-39.438 5.451 2.429 11.479 3.79 17.821 3.79s12.381-1.362 17.837-3.792c22.919 3.76 47.062 15.968 47.997 39.439v27.48zm89.66-90.384v27.483h-96.426c-7.383-5.79-16.754-10.339-27.754-13.356 7.826-7.939 12.666-18.824 12.666-30.822 0-4.252-.618-8.359-1.749-12.251 7.969-5.021 18.1-8.607 29.639-10.487 5.451 2.428 11.477 3.788 17.818 3.788s12.371-1.362 17.823-3.791c22.933 3.761 47.076 15.968 47.984 39.435zm-65.807-111.584c17.623 0 31.961 14.351 31.961 31.989s-14.338 31.961-31.961 31.961-31.96-14.338-31.96-31.961 14.337-31.989 31.96-31.989zm-89.687-69.223c17.639 0 31.989 14.351 31.989 31.989s-14.351 31.961-31.989 31.961-31.961-14.338-31.961-31.961 14.338-31.989 31.961-31.989zm-17.818 72.152c5.451 2.428 11.477 3.788 17.818 3.788s12.379-1.362 17.834-3.79c12.341 2.001 23.292 6.087 31.473 11.715-2.293 5.325-3.57 11.189-3.57 17.346 0 12.004 4.842 22.895 12.669 30.835-7.831 2.156-14.946 5.113-21.118 8.788-7.781-12.42-21.583-20.702-37.289-20.702s-29.492 8.284-37.268 20.707c-6.163-3.678-13.276-6.636-21.11-8.794 7.828-7.94 12.669-18.831 12.669-30.835 0-6.161-1.278-12.028-3.574-17.356 8.198-5.623 19.145-9.704 31.465-11.704zm-71.842-2.93c17.623 0 31.961 14.351 31.961 31.989s-14.338 31.961-31.961 31.961-31.961-14.338-31.961-31.961 14.338-31.989 31.961-31.989zm319.707 253.759c15.726-15.726 22.373-37.055 18.718-60.062l-16.669-104.631c-2.192-13.692-14.37-19.766-25.283-18.682-10.4 1.032-21.341 8.646-20.785 22.921l2.617 68.154c-1.866-1.253-3.904-2.313-6.089-3.149-11.094-4.248-23.182-1.695-31.542 6.664l-50.996 50.996-9.8 2.639c-11.438 3.038-20.682 8.369-29.091 16.777l-23.556 23.556c-12.381 12.38-18.77 27.782-18.99 45.778l-.674 54.954c-7.515 2.223-13.018 9.178-13.018 17.404v20.806c0 10.011 8.145 18.156 18.155 18.156h114.804c10.011 0 18.155-8.145 18.155-18.156v-20.806c0-8.435-5.79-15.524-13.599-17.554l-.306-4.382c-.586-8.33 2.118-15.555 8.038-21.475l79.909-79.909zm-86.033 144.126c0 3.399-2.766 6.166-6.165 6.166h-114.804c-3.399 0-6.165-2.766-6.165-6.166v-20.806c0-3.399 2.766-6.166 6.165-6.166h113.716s.003 0 .005 0h.014 1.069c3.399 0 6.165 2.766 6.165 6.166zm-2.354-72.696c-8.365 8.366-12.35 19.015-11.521 30.792l.206 2.942h-100.436l.663-54.055c.183-14.965 5.246-27.214 15.479-37.446l23.556-23.556c6.946-6.945 14.253-11.161 23.71-13.673l11.367-3.061c1.014-.273 1.938-.808 2.681-1.55l52.129-52.129c5.937-5.936 13.591-5.929 18.777-3.945 6.676 2.556 10.892 8.321 11.277 15.422v.009.007c.286 5.03-1.567 9.932-5.085 13.448s-48.869 48.87-48.869 48.87c-2.342 2.341-2.342 6.137 0 8.479 1.171 1.171 2.705 1.756 4.239 1.756s3.068-.585 4.239-1.756l48.869-48.87c5.891-5.891 9.012-14.061 8.583-22.438 0-.02.001-.039 0-.059l-3.515-91.534c-.273-7.011 5.209-10.051 9.986-10.525 4.94-.491 11.112 1.481 12.259 8.641l16.668 104.625c3.081 19.388-2.229 36.573-15.354 49.699l-79.909 79.909zm-159.539 34.486-.674-54.953c-.221-17.996-6.609-33.398-18.99-45.778l-23.556-23.556c-8.407-8.408-17.651-13.739-29.074-16.773l-9.847-2.645-50.99-50.991c-8.334-8.351-20.401-10.911-31.491-6.681-2.203.84-4.256 1.908-6.137 3.17l2.639-68.159c.556-14.289-10.398-21.9-20.812-22.926-10.905-1.076-23.084 5.001-25.257 18.688l-16.669 104.629c-3.655 23.004 2.992 44.333 18.718 60.059l79.909 79.909c5.898 5.898 8.603 13.129 8.038 21.479l-.305 4.376c-7.825 2.027-13.628 9.118-13.628 17.556v20.806c0 10.011 8.157 18.156 18.184 18.156h114.804c10.011 0 18.155-8.145 18.155-18.156v-20.806c0-8.226-5.503-15.181-13.017-17.404zm-203.662-114.394c-13.126-13.125-18.436-30.311-15.354-49.696l16.668-104.63c1.137-7.154 7.303-9.122 12.239-8.638 4.787.472 10.279 3.511 10.006 10.528l-3.543 91.531c0 .016.001.031 0 .047-.403 8.388 2.725 16.56 8.599 22.44l.012.012 48.87 48.87c1.171 1.171 2.705 1.756 4.239 1.756s3.068-.585 4.239-1.756c2.342-2.341 2.342-6.137 0-8.479l-48.87-48.87c-3.51-3.511-5.373-8.42-5.111-13.467.399-7.109 4.63-12.876 11.318-15.428 5.18-1.975 12.819-1.975 18.735 3.953l52.129 52.129c.743.743 1.669 1.278 2.684 1.551l11.412 3.065c9.439 2.507 16.745 6.722 23.69 13.667l23.556 23.556c10.232 10.232 15.296 22.481 15.479 37.447l.663 54.054h-100.435l.206-2.955c.799-11.801-3.186-22.444-11.521-30.779l-79.909-79.909zm204.688 152.604c0 3.399-2.766 6.166-6.165 6.166h-114.803c-3.415 0-6.193-2.766-6.193-6.166v-20.806c0-3.399 2.778-6.166 6.193-6.166h1.069s.009 0 .014 0h.005 113.715c3.399 0 6.165 2.766 6.165 6.166zm179.144-372.008-2.727 17.252c-.352 2.226.574 4.461 2.396 5.786 1.824 1.325 4.233 1.516 6.243.494l15.565-7.916 15.565 7.916c.858.437 1.789.651 2.717.651 1.244 0 2.482-.387 3.526-1.146 1.822-1.325 2.748-3.56 2.396-5.786l-2.727-17.252 12.354-12.354c1.594-1.593 2.159-3.945 1.464-6.089s-2.534-3.716-4.759-4.071l-17.257-2.751-7.94-15.567c-1.024-2.007-3.087-3.271-5.341-3.271s-4.316 1.264-5.341 3.271l-7.94 15.567-17.257 2.751c-2.225.354-4.063 1.927-4.759 4.071s-.13 4.496 1.464 6.089l12.354 12.354zm13.097-13.904c1.892-.302 3.525-1.489 4.396-3.196l3.985-7.813 3.985 7.813c.871 1.707 2.505 2.895 4.396 3.196l8.663 1.381-6.204 6.204c-1.356 1.356-1.982 3.28-1.683 5.175l1.369 8.662-7.81-3.971c-1.707-.869-3.729-.869-5.436 0l-7.81 3.971 1.369-8.662c.3-1.895-.326-3.819-1.683-5.175l-6.204-6.204 8.663-1.381zm-291.12-58.498-2.497 15.751c-.354 2.226.571 4.461 2.395 5.787 1.044.76 2.282 1.147 3.527 1.147.927 0 1.858-.215 2.716-.651l14.232-7.235 14.204 7.233c2.009 1.023 4.419.833 6.242-.49s2.751-3.557 2.401-5.783l-2.476-15.756 11.284-11.309c1.592-1.595 2.154-3.948 1.457-6.091-.698-2.143-2.538-3.713-4.764-4.065l-15.774-2.498-7.23-14.2c-1.022-2.008-3.085-3.273-5.339-3.275h-.004c-2.252 0-4.314 1.262-5.339 3.268l-7.259 14.207-15.753 2.498c-2.225.353-4.064 1.924-4.762 4.066-.697 2.142-.134 4.495 1.457 6.09l11.28 11.305zm12.668-12.594c1.893-.3 3.527-1.487 4.399-3.194l3.299-6.456 3.283 6.449c.871 1.711 2.509 2.901 4.405 3.201l7.187 1.138-5.136 5.146c-1.352 1.355-1.976 3.274-1.679 5.166l1.126 7.163-6.457-3.288c-1.708-.871-3.729-.871-5.438-.002l-6.472 3.29 1.134-7.155c.301-1.894-.323-3.816-1.677-5.174l-5.138-5.149 7.162-1.136zm-102.156 84.996-2.727 17.252c-.352 2.226.574 4.461 2.396 5.786 1.823 1.325 4.233 1.516 6.243.494l15.565-7.916 15.565 7.916c.858.437 1.789.651 2.717.651 1.244 0 2.482-.387 3.526-1.146 1.822-1.325 2.748-3.56 2.396-5.786l-2.727-17.252 12.354-12.354c1.594-1.593 2.159-3.945 1.464-6.089s-2.534-3.716-4.759-4.071l-17.257-2.751-7.94-15.567c-1.024-2.007-3.087-3.271-5.341-3.271s-4.316 1.264-5.341 3.271l-7.94 15.567-17.257 2.751c-2.225.354-4.063 1.927-4.759 4.071s-.13 4.496 1.464 6.089l12.354 12.354zm13.097-13.904c1.892-.302 3.525-1.489 4.396-3.196l3.985-7.813 3.985 7.813c.871 1.707 2.505 2.895 4.396 3.196l8.663 1.381-6.204 6.204c-1.356 1.356-1.982 3.28-1.683 5.175l1.369 8.662-7.81-3.971c-.854-.435-1.786-.651-2.718-.651s-1.864.217-2.718.651l-7.81 3.971 1.369-8.662c.3-1.895-.326-3.819-1.683-5.175l-6.204-6.204 8.663-1.381zm267.139-58.494-2.476 15.756c-.35 2.226.578 4.459 2.401 5.783 1.822 1.323 4.233 1.513 6.242.49l14.204-7.233 14.232 7.235c.857.436 1.789.651 2.716.651 1.245 0 2.483-.387 3.527-1.147 1.823-1.326 2.748-3.562 2.395-5.788l-2.498-15.751 11.281-11.305c1.591-1.595 2.154-3.947 1.457-6.09s-2.537-3.713-4.762-4.066l-15.754-2.498-7.258-14.207c-1.024-2.006-3.087-3.268-5.339-3.268h-.004c-2.254.001-4.316 1.267-5.339 3.275l-7.23 14.2-15.775 2.498c-2.226.353-4.065 1.923-4.764 4.066-.697 2.143-.135 4.495 1.457 6.09l11.285 11.309zm12.69-12.598c1.896-.3 3.534-1.49 4.405-3.201l3.283-6.448 3.298 6.455c.872 1.707 2.507 2.894 4.399 3.194l7.163 1.136-5.139 5.149c-1.354 1.357-1.978 3.28-1.677 5.174l1.135 7.154-6.472-3.29c-1.707-.868-3.729-.868-5.438.002l-6.457 3.288 1.126-7.163c.297-1.891-.327-3.811-1.679-5.166l-5.136-5.146 7.187-1.138z"/></svg>