<svg id="Capa_1" enable-background="new 0 0 512.009 512.009" height="512" viewBox="0 0 512.009 512.009" width="512" xmlns="http://www.w3.org/2000/svg"><path d="m502.536 200.753c4.069-3.966 1.824-10.877-3.8-11.695l-33.379-4.85c-2.233-.324-4.164-1.727-5.162-3.751l-14.927-30.246c-2.515-5.096-9.782-5.096-12.297 0l-14.927 30.246c-.999 2.024-2.929 3.426-5.162 3.751l-33.379 4.85c-5.624.817-7.869 7.728-3.8 11.695l24.153 23.544c1.616 1.575 2.353 3.845 1.972 6.069l-5.702 33.244c-.961 5.601 4.918 9.872 9.948 7.228l29.855-15.695c1.997-1.05 4.383-1.05 6.381 0l29.855 15.695c5.03 2.645 10.909-1.627 9.948-7.228l-5.702-33.244c-.381-2.224.356-4.494 1.972-6.069z" fill="#fee55a"/><path d="m435.827 240.995c.381-2.224-.356-4.494-1.972-6.069l-24.153-23.544c-4.069-3.966-1.824-10.877 3.8-11.695l33.379-4.85c2.233-.324 4.164-1.727 5.163-3.751l6.699-13.573-13.475-27.303c-2.515-5.096-9.781-5.096-12.296 0l-14.927 30.246c-.999 2.024-2.929 3.426-5.163 3.751l-33.379 4.85c-5.624.817-7.869 7.728-3.8 11.695l24.153 23.544c1.616 1.575 2.354 3.844 1.972 6.069l-5.702 33.244c-.96 5.601 4.918 9.872 9.948 7.228l27.077-14.235z" fill="#ffd301"/><path d="m9.692 200.753c-4.069-3.966-1.824-10.877 3.8-11.695l33.379-4.85c2.233-.324 4.164-1.727 5.162-3.751l14.927-30.246c2.515-5.096 9.782-5.096 12.297 0l14.927 30.246c.999 2.024 2.929 3.426 5.162 3.751l33.379 4.85c5.624.817 7.869 7.728 3.8 11.695l-24.153 23.544c-1.616 1.575-2.353 3.845-1.972 6.069l5.702 33.244c.961 5.601-4.918 9.872-9.948 7.228l-29.855-15.695c-1.997-1.05-4.383-1.05-6.381 0l-29.855 15.695c-5.03 2.645-10.909-1.627-9.948-7.228l5.702-33.244c.381-2.224-.356-4.494-1.972-6.069z" fill="#fee55a"/><path d="m61.984 238.199c.382-2.224-.356-4.494-1.972-6.069l-24.153-23.544c-4.069-3.966-1.824-10.877 3.8-11.694l33.379-4.851c2.233-.324 4.164-1.727 5.162-3.751l9.925-20.111-8.868-17.969c-2.515-5.096-9.781-5.096-12.297 0l-14.927 30.246c-.999 2.024-2.929 3.426-5.163 3.751l-33.379 4.85c-5.624.817-7.869 7.728-3.8 11.695l24.153 23.544c1.616 1.575 2.354 3.844 1.972 6.069l-5.702 33.244c-.961 5.601 4.918 9.872 9.948 7.228l17.94-9.432z" fill="#ffd301"/><path d="m436.733 226.021c4.997-4.871 2.24-13.358-4.666-14.361l-40.991-5.956c-2.743-.398-5.113-2.121-6.34-4.606l-18.332-37.144c-3.089-6.258-12.012-6.258-15.101 0l-18.332 37.144c-1.226 2.485-3.597 4.208-6.34 4.606l-40.991 5.956c-6.906 1.004-9.664 9.491-4.666 14.361l29.661 28.913c1.985 1.934 2.89 4.721 2.422 7.453l-7.002 40.826c-1.18 6.878 6.04 12.123 12.217 8.876l36.664-19.275c2.453-1.29 5.383-1.29 7.836 0l36.664 19.275c6.177 3.248 13.397-1.998 12.217-8.876l-7.002-40.826c-.468-2.731.437-5.518 2.422-7.453z" fill="#fee55a"/><path d="m346.808 272.662c.468-2.731-.437-5.518-2.422-7.452l-29.661-28.913c-4.997-4.871-2.24-13.358 4.667-14.362l40.991-5.956c2.743-.399 5.113-2.121 6.34-4.606l11.543-23.388-11.861-24.032c-3.089-6.258-12.012-6.258-15.101 0l-18.332 37.144c-1.227 2.486-3.597 4.208-6.34 4.606l-40.991 5.957c-6.906 1.003-9.664 9.49-4.667 14.362l29.661 28.913c1.985 1.934 2.89 4.721 2.422 7.452l-7.002 40.826c-1.18 6.878 6.04 12.123 12.217 8.876l23.931-12.581z" fill="#ffd301"/><path d="m75.495 226.021c-4.997-4.871-2.24-13.358 4.666-14.361l40.991-5.956c2.743-.398 5.113-2.121 6.34-4.606l18.332-37.144c3.089-6.258 12.012-6.258 15.101 0l18.332 37.144c1.226 2.485 3.597 4.208 6.34 4.606l40.991 5.956c6.906 1.004 9.664 9.491 4.666 14.361l-29.661 28.913c-1.985 1.934-2.89 4.721-2.422 7.453l7.002 40.826c1.18 6.878-6.04 12.123-12.217 8.876l-36.664-19.275c-2.453-1.29-5.383-1.29-7.836 0l-36.664 19.275c-6.177 3.248-13.397-1.998-12.217-8.876l7.002-40.826c.468-2.731-.437-5.518-2.422-7.453z" fill="#fee55a"/><path d="m144.911 272.662c.468-2.731-.437-5.518-2.422-7.452l-29.661-28.913c-4.997-4.871-2.24-13.358 4.666-14.362l40.991-5.956c2.743-.399 5.113-2.121 6.34-4.606l9.751-19.758-13.652-27.662c-3.089-6.258-12.012-6.258-15.101 0l-18.332 37.144c-1.226 2.486-3.597 4.208-6.34 4.606l-40.991 5.957c-6.906 1.003-9.664 9.49-4.667 14.362l29.661 28.913c1.985 1.934 2.89 4.721 2.422 7.452l-7.002 40.826c-1.18 6.878 6.04 12.123 12.217 8.876l27.87-14.652z" fill="#ffd301"/><path d="m355.574 254.798c6.382-6.221 2.86-17.06-5.96-18.341l-52.35-7.607c-3.503-.509-6.53-2.708-8.097-5.883l-23.411-47.436c-3.944-7.992-15.341-7.992-19.285 0l-23.411 47.436c-1.566 3.174-4.594 5.374-8.097 5.883l-52.35 7.607c-8.82 1.282-12.342 12.121-5.96 18.341l37.881 36.925c2.535 2.47 3.691 6.03 3.093 9.518l-8.943 52.139c-1.507 8.784 7.714 15.483 15.602 11.335l46.823-24.616c3.133-1.647 6.875-1.647 10.007 0l46.823 24.616c7.889 4.148 17.109-2.551 15.602-11.335l-8.941-52.14c-.598-3.488.558-7.048 3.093-9.518z" fill="#fee55a"/><path d="m247.294 315.573c.598-3.488-.558-7.048-3.093-9.518l-37.881-36.925c-6.382-6.221-2.861-17.06 5.959-18.341l52.35-7.607c3.502-.509 6.53-2.708 8.097-5.883l11.758-23.823-18.728-37.946c-3.944-7.992-15.341-7.992-19.285 0l-23.411 47.437c-1.566 3.174-4.594 5.374-8.096 5.883l-52.35 7.607c-8.82 1.282-12.342 12.121-5.959 18.341l37.881 36.925c2.535 2.47 3.691 6.03 3.093 9.518l-8.943 52.139c-1.507 8.784 7.714 15.483 15.602 11.335l38.006-19.98z" fill="#ffd301"/><path d="m139.008 160.45-10.027 20.316-28.329-4.117-14.778-29.942c-5.263-10.667-20.486-10.664-25.747 0l-14.779 29.943-33.043 4.801c-11.77 1.71-16.473 16.187-7.957 24.487l23.911 23.309-5.645 32.909c-2.021 11.768 10.347 20.644 20.83 15.135l29.555-15.538 24.722 12.997-4.639 27.047c-2.229 12.981 11.415 22.927 23.102 16.785l36.674-19.28c.267-.14.586-.142.856 0l33.478 17.599-6.008 35.025c-2.567 14.962 13.156 26.246 26.484 19.242l34.327-18.046c3.666-1.928 5.076-6.462 3.148-10.129s-6.465-5.076-10.129-3.148l-34.327 18.046c-2.395 1.26-5.179-.753-4.721-3.428l8.715-50.802c1.278-7.45-.557-13.143-5.021-17.493l-37.881-36.925c-1.958-1.908-.867-5.159 1.803-5.548l52.352-7.607c5.948-.865 11.086-4.599 13.742-9.985 4.782-9.688 18.633-37.753 23.412-47.437.778-1.578 2.162-1.813 2.917-1.813s2.139.235 2.917 1.813l23.411 47.437c2.657 5.384 7.794 9.121 13.744 9.985l52.35 7.607c2.6.378 3.787 3.613 1.803 5.548l-37.88 36.924c-4.34 4.229-6.258 10.285-5.25 16.158 4.118 24.011 4.704 27.428 8.942 52.139.457 2.672-2.322 4.69-4.72 3.428l-34.327-18.046c-3.667-1.927-8.201-.518-10.129 3.148-1.928 3.667-.518 8.201 3.148 10.129l34.327 18.046c13.387 7.036 29.04-4.341 26.483-19.241l-6.007-35.025 33.479-17.6c.267-.141.587-.141.855.001l36.673 19.279c11.656 6.131 25.337-3.76 23.103-16.784l-4.639-27.047 24.721-12.997 29.556 15.538c10.508 5.525 22.845-3.388 20.83-15.134l-2.994-17.451c-.699-4.083-4.569-6.825-8.66-6.124-4.082.701-6.824 4.578-6.123 8.66l2.773 16.166-28.7-15.088c-4.186-2.2-9.181-2.2-13.362 0l-17.381 9.138 26.91-26.231c9.447-9.206 4.229-25.262-8.824-27.158l-41.001-5.958c-.301-.044-.56-.232-.694-.504l-1.33-2.694 23.84-3.464c4.68-.679 8.722-3.617 10.811-7.854l14.351-29.076 14.35 29.076c2.092 4.239 6.134 7.175 10.811 7.854l32.088 4.663-11.423 11.134c-2.966 2.891-3.026 7.64-.136 10.605 2.894 2.966 7.641 3.028 10.606.136l12.355-12.044c8.517-8.299 3.813-22.776-7.956-24.487l-33.044-4.802-14.777-29.943c-5.266-10.665-20.485-10.664-25.748 0l-14.778 29.942-28.329 4.117-10.026-20.316c-5.838-11.83-22.72-11.827-28.557 0l-18.336 37.154c-.135.272-.394.46-.694.504l-37.481 5.447-15.561-31.529c-6.694-13.562-26.045-13.556-32.736 0l-15.561 31.529-37.482-5.447c-.301-.044-.561-.233-.694-.505l-18.336-37.152c-5.839-11.837-22.722-11.835-28.558-.007zm188.563 52.502c5.188-.754 9.67-4.01 11.989-8.71l18.336-37.153c.076-.154.254-.515.827-.515s.751.361.827.515c19.509 39.53 18.417 37.355 18.796 38.017 2.445 4.273 6.713 7.147 11.529 7.847l41.001 5.958c.757.111 1.084 1.013.511 1.573l-29.668 28.919c-3.753 3.657-5.466 8.925-4.58 14.094l7.004 40.836c.029.169.098.564-.366.901-.463.337-.819.15-.972.07l-36.671-19.278c-4.64-2.44-10.178-2.443-14.82-.001l-29.162 15.332c-.232-1.35-.351-1.768-.307-2.359.058-.783.399-1.528.974-2.089l37.881-36.924c10.802-10.533 4.875-28.955-10.117-31.134l-52.349-7.606c-1.989-.289-2.469-1.818-3.321-3.544zm-247.89 35.366c-4.183-2.2-9.179-2.2-13.361 0l-28.701 15.089 5.482-31.961c.798-4.659-.747-9.409-4.13-12.705l-23.219-22.633 32.089-4.663c4.676-.68 8.717-3.616 10.809-7.854l14.35-29.076 14.351 29.077c2.092 4.237 6.133 7.173 10.81 7.853l23.842 3.464-1.33 2.694c-.135.272-.394.46-.693.504l-41.002 5.958c-13.054 1.897-18.269 17.952-8.825 27.158l26.911 26.232zm74.431-81.23 18.337 37.155c2.32 4.7 6.803 7.956 11.988 8.708l32.658 4.746-.872 1.766c-.473.959-1.389 1.625-2.448 1.779l-52.351 7.606c-14.867 2.161-21.007 20.515-10.115 31.134l37.881 36.925c.798.778 1.124 1.781.893 3.135l-.226 1.312-29.161-15.33c-4.639-2.44-10.18-2.441-14.82-.001l-36.673 19.28c-.69.363-1.467-.198-1.338-.972l7.004-40.836c.887-5.167-.825-10.436-4.579-14.093l-29.669-28.92c-.561-.545-.26-1.459.511-1.573l41.002-5.958c5.192-.755 9.671-4.015 11.988-8.71 4.233-8.577 14.156-28.682 18.337-37.154.076-.154.254-.514.826-.514.573.001.751.361.827.515z"/></svg>