<svg id="Capa_1" enable-background="new 0 0 512 512" height="512" viewBox="0 0 512 512" width="512" xmlns="http://www.w3.org/2000/svg"><g><g><path d="m436.363 336.161h40.081v168.339h-40.081z" fill="#e29a6c"/><path d="m454.924 247.945-46.828-12.771c-6.975-1.902-11.814-8.237-11.814-15.467v-43.868h-80.161v32.065c0 13.282-10.767 24.048-24.048 24.048h-112.226v224.452l72.145 48.097h160.323l24.048-144.29 37.134-12.378c6.547-2.182 10.962-8.309 10.962-15.21v-46.008c.001-18.076-12.097-33.915-29.535-38.67z" fill="#7ad7ee"/><path d="m454.925 247.944-46.829-12.771c-2.827-.771-5.162-2.406-7.107-4.397l-6.953 25.49 54.563 14.882c6.952 1.898 11.813 8.255 11.813 15.465v65.581l13.086-4.362c6.547-2.183 10.962-8.309 10.962-15.21v-46.008c0-18.076-12.098-33.914-29.535-38.67z" fill="#4bc3ef"/><path d="m408.096 235.173c-6.975-1.902-11.814-8.238-11.814-15.467v-43.868h-80.161v32.065c0 12.58-9.693 22.786-21.999 23.842 7.057 27.75 32.134 48.303 62.08 48.303 27.843 0 51.472-17.776 60.336-42.573z" fill="#e29a6c"/><path d="m408.096 235.173c-6.975-1.902-11.814-8.238-11.814-15.467v-43.868h-80.161v32.065c0 4.928-1.525 9.464-4.075 13.257 16.715 8.662 35.743 12.341 54.755 10.189 3.906-.474 7.523 1.37 8.854 4.411 4.877 11.171 14.396 19.414 26.115 22.616l1.755.479c5.601-6.188 10.144-13.358 13.012-21.38z" fill="#d48c64"/><path d="m436.363 105.917v-50.32c0-11.993-6.662-22.325-16.413-27.824-1.822-11.476-11.679-20.273-23.668-20.273h-64.129c-30.99 0-56.113 25.122-56.113 56.113v42.304c-4.772 2.777-8.016 7.889-8.016 13.809 0 8.854 7.178 16.032 16.032 16.032 0 39.845 32.3 72.145 72.145 72.145s72.145-32.3 72.145-72.145c8.854 0 16.032-7.178 16.032-16.032.001-5.92-3.243-11.032-8.015-13.809z" fill="#f4aa73"/><path d="m436.363 105.917v-50.32h-40.61v88.177c0 27.919-15.358 52.085-38.559 64.079 39.382-.537 71.152-32.586 71.152-72.095 8.854 0 16.032-7.178 16.032-16.032.001-5.92-3.243-11.032-8.015-13.809z" fill="#e29a6c"/><path d="m396.282 7.5h-64.129c-30.99 0-56.113 25.123-56.113 56.113v42.226c2.358-1.364 5.096-2.145 8.016-2.145 0 0 24.97-1.024 47.844-12.766 9.892 3.996 48.251 12.733 72.336-27.915l15.714-35.24c-1.822-11.476-11.679-20.273-23.668-20.273z" fill="#615260"/><path d="m35.556 368.226h40.081v136.274h-40.081z" fill="#ffd18d"/><path d="m195.879 251.923v-36.004h-80.161v111.898h102.902l-1.511-57.736-9.601-2.743c-6.884-1.966-11.629-8.257-11.629-15.415z" fill="#ffd18d"/><path d="m207.507 267.338c-6.882-1.966-11.628-8.257-11.628-15.415v-36.004h-80.161v39.231c14.817 6.827 30.993 9.833 46.946 8.596 6.043-.497 11.351 2.462 14.381 7.84 5.229 9.265 13.692 15.966 23.853 18.874l9.597 2.74 6.614-23.118z" fill="#fbbd80"/><path d="m227.944 504.5 10.224-13.026v-208.881c-5.686-5.78-12.864-10.17-21.059-12.511l-1.061-.303c-8.93 24.671-32.496 42.334-60.249 42.334-15.176 0-29.098-5.3-40.081-14.112v-42.001l-61.794 22.471c-15.839 5.759-26.383 20.813-26.383 37.667v48.548c0 6.9 4.416 13.027 10.963 15.209l37.134 12.379v112.226z" fill="#98db7c"/><path d="m217.108 270.082-1.062-.303c-2.891 7.987-7.445 15.123-13.05 21.28l7.505 2.146c10.271 2.936 17.441 12.447 17.441 23.125v188.17h24.048v-188.172c.002-21.474-14.234-40.347-34.882-46.246z" fill="#77cc7d"/><path d="m263.488 419.802-11.983-11.983 11.337-11.337c6.261-6.261 6.261-16.412 0-22.673l-11.337-11.336c-7.136-7.136-17.216-10.497-27.208-9.069l-3.968.567c-12.489 1.784-25.089-2.416-34.009-11.336l-63.559-63.559c-4.51-4.51-7.043-10.627-7.043-17.005v-30.119h-22.948c-16.758 0-32.61 9.698-38.543 25.37-5.747 15.182-1.817 31.565 8.983 42.364l145.813 145.813c9.451 9.451 23.773 12.049 35.941 6.518l13.821-6.282c10.191-4.634 12.618-18.018 4.703-25.933z" fill="#f4aa73"/><path d="m235.96 137.982v-50.32c0-11.993-6.662-22.325-16.413-27.824-1.822-11.476-11.679-20.273-23.668-20.273h-64.129c-30.99 0-56.113 25.122-56.113 56.113v42.304c-4.772 2.777-8.016 7.889-8.016 13.809 0 8.854 7.178 16.032 16.032 16.032 0 39.845 32.3 72.145 72.145 72.145s72.145-32.3 72.145-72.145c8.854 0 16.032-7.178 16.032-16.032.001-5.92-3.244-11.032-8.015-13.809z" fill="#ffe09c"/><path d="m235.96 137.982v-50.32h-40.61v88.177c0 27.919-15.358 52.085-38.559 64.079 39.382-.537 71.152-32.586 71.152-72.095 8.854 0 16.032-7.178 16.032-16.032.001-5.92-3.244-11.032-8.015-13.809z" fill="#ffd18d"/><path d="m195.879 39.564h-64.129c-30.99 0-56.113 25.123-56.113 56.113v42.226c2.358-1.364 5.096-2.145 8.016-2.145h9.46c3.821 0 7.111-2.697 7.86-6.444l4.929-24.641c.93-4.651 5.611-7.402 10.165-6.074 10.917 3.185 24.706 5.094 39.73 5.094s28.812-1.909 39.73-5.094l24.018-38.762c-1.82-11.476-11.677-20.273-23.666-20.273z" fill="#c6805d"/><g><path d="m219.547 59.837c-1.822-11.476-11.679-20.273-23.668-20.273h-32.065c17.709 0 32.065 14.356 32.065 32.065v26.942l8.732.704 6.011 30.039c.75 3.747 4.039 6.444 7.861 6.444h17.478v-48.097c-.001-11.993-6.663-22.324-16.414-27.824z" fill="#af6e4d"/></g><path d="m419.95 27.772c-1.822-11.475-11.679-20.272-23.668-20.272h-32.064c17.709 0 32.064 14.355 32.064 32.064v34.564l8.69-7.053c2.245 11.319 6.052 30.173 6.052 30.173.75 3.747 4.039 6.444 7.86 6.444h17.478v-48.095c.001-11.993-6.661-22.325-16.412-27.825z" fill="#4e3d4d"/><path d="m414.207 272.032h26.387c12.145 0 23.248-6.862 28.679-17.725l3.585-7.17c5.33-10.66-2.422-23.202-14.34-23.202h-26.387c-12.145 0-23.248 6.862-28.679 17.725l-3.585 7.17c-5.33 10.66 2.422 23.202 14.34 23.202z" fill="#f4aa73"/><path d="m262.842 373.81-11.338-11.336c-7.137-7.136-17.216-10.495-27.206-9.069l-3.968.567c-12.49 1.783-25.09-2.417-34.011-11.338l-63.558-63.557c-4.51-4.51-7.044-10.627-7.044-17.004v-6.073h-12.827c-6.524 0-11.606 5.741-10.793 12.214 1.321 10.516 6.044 20.242 13.664 27.866l63.557 63.56c14.273 14.273 34.433 20.993 54.415 18.135l3.318-.479c2.769-.407 5.257.812 7.042 2.589l22.673 22.673 6.077-6.077c6.26-6.259 6.26-16.411-.001-22.671z" fill="#e29a6c"/><path d="m436.363 504.5h-24.048v-160.323c0-13.282 10.767-24.048 24.048-24.048z" fill="#4bc3ef"/><path d="m472.858 247.137c5.331-10.66-2.421-23.202-14.339-23.202h-20.186c4.196 0 16.929 7.601 10.748 20.322l-13.88 27.775h5.394c12.146 0 23.248-6.862 28.68-17.725z" fill="#e29a6c"/></g><g><path d="m155.798 207.387c8.329 0 16.295-3.934 21.857-10.792 2.609-3.217 2.116-7.94-1.101-10.549s-7.94-2.117-10.549 1.101c-2.741 3.38-6.366 5.241-10.207 5.241s-7.466-1.861-10.208-5.241c-2.609-3.217-7.332-3.709-10.549-1.101-3.217 2.609-3.709 7.333-1.1 10.55 5.563 6.858 13.53 10.791 21.857 10.791z"/><path d="m123.734 167.307c4.142 0 7.5-3.358 7.5-7.5v-8.017c0-4.142-3.358-7.5-7.5-7.5s-7.5 3.358-7.5 7.5v8.017c0 4.141 3.358 7.5 7.5 7.5z"/><path d="m187.863 167.307c4.142 0 7.5-3.358 7.5-7.5v-8.017c0-4.142-3.358-7.5-7.5-7.5s-7.5 3.358-7.5 7.5v8.017c0 4.141 3.358 7.5 7.5 7.5z"/><path d="m478.223 253.18 1.344-2.688c3.674-7.349 3.289-15.907-1.03-22.896s-11.802-11.161-20.018-11.161h-26.388c-9.646 0-18.658 3.44-25.674 9.44-1.659-1.581-2.675-3.791-2.675-6.17v-20.137c17.85-13.344 29.951-33.973 31.813-57.453 9.44-3.063 16.284-11.942 16.284-22.391 0-6.765-2.989-13.18-8.016-17.604v-46.523c0-12.998-6.535-25.16-17.264-32.51-3.733-13.571-15.966-23.087-30.317-23.087h-64.129c-35.076 0-63.613 28.537-63.613 63.613v38.508c-5.027 4.424-8.016 10.84-8.016 17.604 0 10.448 6.843 19.327 16.284 22.391 1.862 23.479 13.963 44.109 31.813 57.453v8.334c0 9.125-7.423 16.548-16.548 16.548h-80.347c13.214-13.052 21.911-30.667 23.466-50.271 9.44-3.063 16.284-11.942 16.284-22.391 0-6.765-2.989-13.18-8.016-17.604v-46.524c0-12.997-6.535-25.16-17.264-32.51-3.733-13.571-15.966-23.087-30.317-23.087h-64.129c-35.076 0-63.613 28.537-63.613 63.613v38.508c-5.027 4.424-8.016 10.84-8.016 17.604 0 10.448 6.843 19.327 16.284 22.391 1.555 19.604 10.252 37.219 23.466 50.271h-7.101c-20.407 0-38.715 12.143-45.557 30.215-2.764 7.302-3.632 15.004-2.756 22.453-14.966 8.332-24.417 24.184-24.417 41.558v46.009c0 6.938 3.027 13.323 8.016 17.695v122.119c0 4.142 3.358 7.5 7.5 7.5s7.5-3.358 7.5-7.5v-115.181l25.081 8.36v106.821c0 4.142 3.358 7.5 7.5 7.5s7.5-3.358 7.5-7.5v-144.29c0-4.143-3.358-7.5-7.5-7.5s-7.5 3.357-7.5 7.5v21.658l-27.263-9.087c-3.49-1.163-5.834-4.416-5.834-8.094v-46.009c0-10.703 5.243-20.552 13.751-26.577 2.257 4.71 5.308 9.081 9.115 12.888l145.814 145.813c7.553 7.553 17.744 11.558 28.06 11.557 4.277 0 8.573-.698 12.712-2.107v44.248c0 4.142 3.358 7.5 7.5 7.5s7.5-3.358 7.5-7.5v-50.849l2.397-1.089c7.024-3.193 12.041-9.632 13.417-17.225 1.377-7.592-1.059-15.382-6.515-20.838l-6.679-6.679 6.033-6.034c9.175-9.175 9.175-24.104 0-33.279l-11.336-11.337c-8.759-8.758-21.312-12.942-33.572-11.19l-3.968.567c-10.101 1.441-20.433-2.003-27.646-9.215l-19.562-19.562c21.007-4.838 38.82-18.929 48.326-38.8 14.447 6.436 24.104 20.914 24.104 37.086v9.743c0 4.142 3.358 7.5 7.5 7.5s7.5-3.358 7.5-7.5v-9.743c0-25.003-16.847-47.06-40.968-53.638l-8.857-2.416c-3.702-1.009-6.288-4.395-6.288-8.231v-12.319h83.477c11.313 27.478 37.484 44.404 66.305 44.404 15.304 0 30.003-4.852 42.205-13.771 4.428 5.946 11.324 9.447 18.841 9.447h26.387c11.448 0 22.011-4.837 29.391-13.063 4.485 5.69 6.974 12.745 6.974 20.145v46.009c0 3.679-2.345 6.931-5.834 8.095l-27.263 9.087v-29.675c0-4.142-3.358-7.5-7.5-7.5s-7.5 3.358-7.5 7.5v184.37c0 4.142 3.358 7.5 7.5 7.5s7.5-3.358 7.5-7.5v-138.885l25.081-8.36v147.245c0 4.142 3.358 7.5 7.5 7.5s7.5-3.358 7.5-7.5v-154.182c4.99-4.373 8.016-10.758 8.016-17.696v-46.009c.001-12.625-4.959-24.562-13.735-33.433zm-297.206 94.758c10.533 10.534 25.625 15.565 40.373 13.458l3.968-.566c7.613-1.087 15.406 1.51 20.844 6.948l11.336 11.336c3.327 3.327 3.327 8.74 0 12.066l-6.033 6.034-11.702-11.702c-2.929-2.93-7.678-2.93-10.606 0-2.929 2.929-2.929 7.677 0 10.606l28.988 28.987c2.007 2.008 2.869 4.762 2.362 7.556s-2.28 5.07-4.865 6.245l-13.821 6.282c-9.269 4.213-20.334 2.207-27.535-4.993l-145.812-145.813c-8.944-8.943-11.798-22.447-7.272-34.404 4.648-12.278 17.318-20.527 31.528-20.527h15.448v22.62c0 8.427 3.282 16.349 9.24 22.308zm24.703-73.464.127.035c-9.285 17.584-27.009 28.971-47.031 30.016l-30.752-30.752c-3.125-3.125-4.847-7.281-4.847-11.701v-21.584c9.951 4.479 20.978 6.98 32.581 6.98s22.629-2.501 32.581-6.98v11.283c0 10.583 7.131 19.918 17.341 22.703zm-49.922-42.006c-35.667 0-64.68-29.035-64.645-64.709.004-4.184-3.429-7.382-7.613-7.437-4.653-.061-8.419-3.864-8.419-8.531 0-4.712 3.82-8.532 8.532-8.532h9.46c7.371 0 13.77-5.246 15.215-12.473l4.928-24.642c.021-.106.06-.217.198-.3.143-.087.315-.102.513-.044 12.098 3.528 26.562 5.394 41.831 5.394 19.437 0 37.405-3.001 50.652-8.457 3.591-1.479 5.736-5.364 4.665-9.097-1.262-4.398-6.012-6.592-10.109-4.884-11.324 4.727-27.801 7.438-45.208 7.438-13.668 0-27.033-1.702-37.63-4.794-4.214-1.229-8.765-.64-12.487 1.615-3.685 2.233-6.285 5.946-7.133 10.188l-4.928 24.641c-.048.241-.26.415-.506.415h-9.977v-32.58c0-26.849 21.765-48.613 48.613-48.613h64.128c8.19 0 15.064 5.941 16.285 14.104.331 2.216 1.725 4.092 3.678 5.19 7.783 4.379 12.618 12.544 12.618 21.303v50.32c0 2.639 1.358 5.133 3.652 6.438 3.46 1.97 5.158 5.877 4.006 9.858-1.061 3.665-4.56 5.947-8.373 6.047-4.05.106-7.3 3.423-7.3 7.498-.001 35.644-29 64.644-64.646 64.644zm237.361 13.008c-1.455 2.909-2.262 6.008-2.452 9.125-10.367 9.195-23.641 14.256-37.546 14.256-21.56 0-41.033-12.131-50.609-31.201 12.105-4.276 20.838-15.738 21.056-29.238 9.955 4.483 20.986 6.986 32.594 6.986 11.602 0 22.629-2.501 32.581-6.98v11.283c0 7.005 3.16 13.516 8.309 17.911zm-36.957-45.073c-35.646 0-64.645-29-64.645-64.646 0-4.142-3.358-7.5-7.5-7.5-4.705 0-8.305-3.833-8.532-8.532-.217-4.486 3.137-8.453 6.625-8.776 5.878-.545 15.323-1.293 26.672-3.963 9.386-2.209 17.812-5.115 25.269-8.687 3.288 1.4 11.95 4.577 22.898 4.577 1.341 0 2.716-.047 4.12-.152 14.583-1.087 35.077-8.562 49.891-38.004 1.862-3.7.372-8.209-3.329-10.071-3.7-1.861-8.209-.371-10.071 3.329-9.242 18.367-21.7 28.373-37.029 29.74-3.352.3-6.501.139-9.309-.233 4.176-3.442 7.84-7.221 10.941-11.356 2.485-3.313 1.813-8.015-1.5-10.5s-8.015-1.813-10.5 1.5c-16.557 22.076-51.347 27.386-66.661 28.662v-32.178c0-26.805 21.808-48.613 48.613-48.613h64.129c8.139 0 14.978 5.866 16.261 13.949.359 2.26 1.73 4.232 3.723 5.356 7.77 4.382 12.597 12.54 12.597 21.291v50.32c0 2.67 1.42 5.14 3.728 6.482 2.686 1.562 4.289 4.302 4.289 7.326 0 4.705-3.828 8.532-8.532 8.532-4.142 0-7.5 3.358-7.5 7.5-.003 35.647-29.003 64.647-64.648 64.647zm109.948 43.381-3.584 7.169c-4.188 8.376-12.607 13.579-21.972 13.579h-26.387c-3.023 0-5.669-1.475-7.258-4.047-1.589-2.571-1.726-5.597-.374-8.301l3.585-7.17c4.188-8.376 12.607-13.579 21.971-13.579h26.388c3.023 0 5.668 1.475 7.258 4.047 1.589 2.572 1.725 5.598.373 8.302z"/><path d="m356.202 175.322c8.328 0 16.294-3.933 21.857-10.791 2.609-3.217 2.117-7.94-1.1-10.55s-7.94-2.117-10.549 1.101c-2.741 3.379-6.366 5.24-10.208 5.24s-7.466-1.861-10.207-5.24c-2.609-3.217-7.333-3.71-10.549-1.101-3.217 2.609-3.71 7.332-1.101 10.549 5.562 6.859 13.529 10.792 21.857 10.792z"/><path d="m324.137 135.242c4.142 0 7.5-3.358 7.5-7.5v-8.017c0-4.142-3.358-7.5-7.5-7.5s-7.5 3.358-7.5 7.5v8.017c0 4.142 3.358 7.5 7.5 7.5z"/><path d="m388.266 135.242c4.142 0 7.5-3.358 7.5-7.5v-8.017c0-4.142-3.358-7.5-7.5-7.5s-7.5 3.358-7.5 7.5v8.017c0 4.142 3.358 7.5 7.5 7.5z"/></g></g></svg>