<svg id="Capa_1" enable-background="new 0 0 512 512" height="512" viewBox="0 0 512 512" width="512" xmlns="http://www.w3.org/2000/svg"><g><g><path d="m425.76 268.531c.381-.38.759-.762 1.135-1.145 11.542-11.776 31.452-1.146 27.919 14.96-7.963 36.303-26.047 70.833-54.254 99.08-78.917 79.029-205.948 79.166-285.035.306-78.946-78.719-79.016-206.537-.21-285.343 28.248-28.248 62.79-46.361 99.111-54.342 16.16-3.551 26.815 16.348 15.002 27.934-.329.323-.657.647-.983.973-54.068 54.068-54.514 141.441-1.36 196.06 53.688 55.167 144.173 55.878 198.675 1.517z" fill="#ffe177"/><path d="m179.905 381.729c31.23 31.14 69.93 49.96 110.19 56.47-61.57 9.97-126.81-8.85-174.57-56.47-78.95-78.72-79.02-206.53-.21-285.34 28.25-28.25 62.79-46.36 99.11-54.34 11.02-2.42 19.48 6.06 20 15.37-19.78 9.57-38.32 22.56-54.73 38.97-78.81 78.81-78.74 206.62.21 285.34z" fill="#ffd15b"/><path d="m82.449 365.304h19.182c10.768-28.648 38.407-49.038 70.819-49.038 40.892 0 74.184 32.452 75.577 73.004h.067c31.82 0 57.615 25.795 57.615 57.615 0 31.82-25.795 57.615-57.615 57.615h-165.645c-38.438 0-69.598-31.16-69.598-69.598.001-38.438 31.16-69.598 69.598-69.598z" fill="#f9f3f1"/><path d="m200.109 321.49c-19.86 7.82-35.62 23.8-43.14 43.81h-19.18c-19.22 0-36.62 7.79-49.22 20.38-12.59 12.6-20.38 30-20.38 49.22 0 38.44 31.16 69.6 69.6 69.6h-55.34c-38.44 0-69.6-31.16-69.6-69.6 0-19.22 7.79-36.62 20.38-49.22 12.6-12.59 30-20.38 49.22-20.38h19.18c10.77-28.64 38.4-49.03 70.82-49.03 9.76 0 19.09 1.85 27.66 5.22z" fill="#f3eae6"/><g><path d="m345.869 61.01c-2.19 2.14-3.19 5.22-2.68 8.24l2.66 15.49c1.31 7.61-6.69 13.42-13.52 9.82l-13.91-7.31c-2.15-1.13-4.64-1.36-6.92-.7-.6.17-1.19.41-1.75.7l-13.91 7.31c-6.84 3.6-14.83-2.21-13.52-9.82l2.65-15.49c.52-3.02-.48-6.1-2.68-8.24l-11.25-10.97c-5.53-5.39-2.48-14.79 5.17-15.9l15.55-2.26c3.03-.44 5.66-2.35 7.01-5.1l6.96-14.08c3.41-6.93 13.29-6.93 16.71 0l1.67 3.39 5.28 10.69c1.36 2.75 3.99 4.66 7.02 5.1l15.55 2.26c7.64 1.11 10.7 10.51 5.16 15.9z" fill="#ffe177"/><path d="m304.289 58.97c0 10.02 2.61 19.43 7.21 27.58-.6.17-1.19.41-1.75.7l-13.91 7.31c-6.84 3.6-14.83-2.21-13.52-9.82l2.65-15.49c.52-3.02-.48-6.1-2.68-8.24l-11.25-10.97c-5.53-5.39-2.48-14.79 5.17-15.9l15.55-2.26c3.03-.44 5.66-2.35 7.01-5.1l6.96-14.08c3.41-6.93 13.29-6.93 16.71 0l1.67 3.39c-12.13 10.32-19.82 25.7-19.82 42.88z" fill="#ffd15b"/></g><g><path d="m478.026 450.221c-2.19 2.14-3.19 5.22-2.68 8.24l2.66 15.49c1.31 7.61-6.69 13.42-13.52 9.82l-13.91-7.31c-2.15-1.13-4.64-1.36-6.92-.7-.6.17-1.19.41-1.75.7l-13.91 7.31c-6.84 3.6-14.83-2.21-13.52-9.82l2.65-15.49c.52-3.02-.48-6.1-2.68-8.24l-11.25-10.97c-5.53-5.39-2.48-14.79 5.17-15.9l15.55-2.26c3.03-.44 5.66-2.35 7.01-5.1l6.96-14.08c3.41-6.93 13.29-6.93 16.71 0l1.67 3.39 5.28 10.69c1.36 2.75 3.99 4.66 7.02 5.1l15.55 2.26c7.64 1.11 10.7 10.51 5.16 15.9z" fill="#ffe177"/><path d="m436.446 448.181c0 10.02 2.61 19.43 7.21 27.58-.6.17-1.19.41-1.75.7l-13.91 7.31c-6.84 3.6-14.83-2.21-13.52-9.82l2.65-15.49c.52-3.02-.48-6.1-2.68-8.24l-11.25-10.97c-5.53-5.39-2.48-14.79 5.17-15.9l15.55-2.26c3.03-.44 5.66-2.35 7.01-5.1l6.96-14.08c3.41-6.93 13.29-6.93 16.71 0l1.67 3.39c-12.13 10.32-19.82 25.7-19.82 42.88z" fill="#ffd15b"/></g><g><path d="m455.062 133.028h-12.152c-6.822-18.148-24.33-31.065-44.863-31.065-25.904 0-46.994 20.558-47.877 46.247h-.042c-20.157 0-36.498 16.341-36.498 36.498 0 20.157 16.341 36.498 36.498 36.498h104.934c24.35 0 44.089-19.739 44.089-44.089 0-24.35-19.74-44.089-44.089-44.089z" fill="#f9f3f1"/><path d="m411.932 104.005c-19.173 5.805-33.275 23.308-33.991 44.211h-.044c-20.152 0-36.492 16.34-36.492 36.492v.009c0 20.152 16.34 36.492 36.492 36.492h-27.767c-20.161 0-36.501-16.34-36.501-36.492v-.009c0-20.152 16.34-36.492 36.501-36.492h.044c.446-12.843 5.936-24.409 14.557-32.759 8.62-8.349 20.37-13.49 33.318-13.49 4.834.001 9.494.718 13.883 2.038z" fill="#f3eae6"/></g></g><g><path d="m405.867 386.729c28.28-28.33 47.737-63.868 56.269-102.773 2.335-10.657-2.377-20.905-12.006-26.108-9.538-5.155-21.032-3.428-28.612 4.309-.348.357-.704.713-1.054 1.063-24.923 24.854-58.35 38.383-94.264 38.125-35.885-.269-69.178-14.32-93.745-39.565-24.342-25.01-37.625-58.021-37.402-92.954.222-34.951 13.95-67.812 38.656-92.537.321-.314.645-.636.96-.951 7.736-7.579 9.47-19.078 4.314-28.613-5.211-9.638-15.487-14.348-26.173-12-38.938 8.555-74.486 28.045-102.805 56.362-10.139 10.14-19.241 21.307-27.054 33.193-2.275 3.461-1.313 8.112 2.148 10.387s8.111 1.313 10.387-2.148c7.253-11.036 15.707-21.407 25.126-30.826 26.287-26.288 59.282-44.379 95.416-52.318 6.077-1.333 9.008 3.094 9.759 4.483 1.569 2.901 1.968 7.252-1.617 10.764-.017.017-.086.085-.103.102-.281.281-.57.57-.859.851-.023.023-.048.047-.072.071-27.535 27.536-42.837 64.145-43.084 103.083-.247 38.898 14.545 75.659 41.652 103.51 27.386 28.142 64.457 43.805 104.383 44.104.39.003.773.004 1.162.004 39.465-.001 76.293-15.071 103.813-42.515.402-.403.806-.806 1.184-1.194 3.498-3.57 7.848-3.164 10.752-1.595 1.387.749 5.808 3.663 4.484 9.7-7.917 36.104-25.979 69.088-52.231 95.387-23.869 23.904-53.278 41.11-85.419 50.061-7.958-23.673-29.18-41.316-54.826-44.052-2.22-18.985-10.858-36.525-24.739-49.968-15.583-15.091-36.116-23.402-57.817-23.402-30.32 0-58.184 16.796-72.689 42.809-18.384-25.764-30.213-55.7-34.348-87.265-4.556-34.77.329-70.092 14.126-102.148 1.638-3.805-.119-8.216-3.924-9.854-3.808-1.639-8.218.12-9.854 3.924-14.864 34.535-20.128 72.582-15.222 110.026 4.322 32.993 16.432 64.346 35.238 91.538h-3.327c-20.595 0-39.955 8.018-54.513 22.577-14.566 14.565-22.587 33.929-22.587 54.524 0 42.513 34.587 77.1 77.101 77.1h162.77c4.143 0 7.5-3.358 7.5-7.5s-3.357-7.5-7.5-7.5h-162.771c-34.242 0-62.101-27.858-62.101-62.1 0-16.588 6.461-32.185 18.194-43.917 11.726-11.726 27.319-18.183 43.907-18.183h19.18c3.124 0 5.921-1.936 7.02-4.86 9.936-26.419 35.575-44.17 63.801-44.17 17.785 0 34.612 6.811 47.382 19.178 12.739 12.336 20.091 28.879 20.703 46.581.139 4.039 3.514 7.241 7.555 7.241 27.637 0 50.12 22.479 50.12 50.12 0 17.608-8.989 33.607-24.047 42.798-3.536 2.158-4.652 6.773-2.494 10.309 2.158 3.537 6.774 4.652 10.309 2.495 19.557-11.937 31.232-32.722 31.232-55.612 0-2.015-.097-4.008-.277-5.976 34.991-9.571 67.003-28.207 92.933-54.175z"/><path d="m277.057 66.375c.429.418.624 1.021.522 1.612l-2.655 15.485c-1.09 6.356 1.475 12.66 6.692 16.451 2.948 2.142 6.397 3.23 9.87 3.23 2.673 0 5.36-.645 7.843-1.95l13.906-7.311c.53-.28 1.166-.279 1.694 0l13.906 7.31c5.71 3.002 12.495 2.51 17.713-1.279 5.218-3.791 7.782-10.095 6.692-16.451l-2.656-15.485c-.101-.591.095-1.193.523-1.611l11.251-10.966c4.618-4.502 6.249-11.109 4.256-17.243-1.993-6.133-7.195-10.52-13.578-11.447l-15.548-2.26c-.593-.086-1.104-.458-1.37-.996l-6.953-14.088c-2.853-5.783-8.633-9.376-15.082-9.376-6.45 0-12.229 3.593-15.084 9.376l-6.953 14.089c-.266.537-.777.909-1.37.996l-15.547 2.259c-6.383.927-11.586 5.314-13.579 11.447-1.993 6.134-.362 12.741 4.256 17.243zm-1.241-23.572c.159-.491.544-1.104 1.469-1.239l15.547-2.259c5.48-.796 10.215-4.236 12.665-9.202l6.953-14.088c.414-.839 1.116-1.015 1.633-1.015.516 0 1.218.176 1.632 1.015l6.953 14.088c2.45 4.966 7.185 8.406 12.665 9.202l15.548 2.259c.925.135 1.309.748 1.469 1.239.159.491.209 1.213-.461 1.866l-11.251 10.967c-3.965 3.865-5.772 9.43-4.837 14.887l2.655 15.485c.158.922-.306 1.477-.724 1.78s-1.09.573-1.916.138l-13.906-7.311c-4.9-2.576-10.753-2.577-15.655 0l-13.906 7.311c-.826.434-1.498.165-1.916-.139-.418-.303-.882-.858-.724-1.78l2.654-15.484c.937-5.458-.871-11.023-4.836-14.888l-11.251-10.966c-.67-.653-.62-1.376-.46-1.866z"/><path d="m485.193 415.931-15.546-2.259c-.594-.086-1.105-.458-1.371-.996l-6.953-14.088c-2.854-5.783-8.634-9.376-15.084-9.376-6.449 0-12.229 3.593-15.083 9.376l-6.953 14.089c-.266.537-.777.909-1.37.996l-15.548 2.259c-6.382.927-11.585 5.312-13.578 11.446s-.362 12.741 4.256 17.244l11.251 10.966c.429.418.624 1.021.522 1.612l-2.654 15.485c-1.091 6.357 1.474 12.661 6.691 16.452 2.948 2.142 6.397 3.23 9.87 3.229 2.673 0 5.36-.645 7.843-1.95l13.905-7.311c.531-.279 1.165-.28 1.694 0l13.906 7.311c5.708 3 12.495 2.511 17.714-1.28 5.218-3.791 7.782-10.095 6.691-16.452l-2.656-15.485c-.101-.59.095-1.192.524-1.611l11.251-10.966c4.618-4.502 6.249-11.109 4.255-17.243-1.992-6.135-7.195-10.522-13.577-11.448zm-1.147 17.948-11.251 10.967c-3.965 3.865-5.773 9.431-4.837 14.888l2.655 15.484c.158.922-.306 1.477-.724 1.781-.418.303-1.091.574-1.917.138l-13.906-7.311c-2.45-1.288-5.138-1.932-7.826-1.932s-5.377.645-7.828 1.932l-13.906 7.312c-.826.434-1.498.165-1.916-.139-.418-.303-.882-.859-.724-1.781l2.654-15.485c.937-5.457-.871-11.022-4.836-14.888l-11.251-10.966c-.67-.653-.62-1.375-.461-1.866.16-.491.544-1.104 1.469-1.238l15.549-2.259c5.479-.796 10.214-4.236 12.664-9.201l6.953-14.088c.414-.839 1.116-1.015 1.632-1.015.517 0 1.219.176 1.633 1.015l6.953 14.088c2.45 4.965 7.185 8.405 12.665 9.202l15.547 2.259c.926.135 1.31.748 1.469 1.239.16.489.21 1.212-.46 1.864z"/><path d="m343.31 141.238c-21.035 3.287-37.18 21.529-37.18 43.472 0 11.754 4.577 22.804 12.887 31.113 8.31 8.31 19.359 12.887 31.113 12.887h104.93c28.447 0 51.591-23.143 51.591-51.59 0-12.962-4.825-25.354-13.587-34.894-2.801-3.051-7.546-3.252-10.597-.451-3.051 2.802-3.252 7.546-.45 10.597 6.212 6.764 9.634 15.553 9.634 24.747 0 20.176-16.415 36.59-36.591 36.59h-104.93c-7.747 0-15.029-3.016-20.507-8.494-5.477-5.477-8.493-12.759-8.493-20.506 0-15.991 13.01-29 29.04-29 4.042 0 7.357-3.203 7.495-7.243.36-10.5 4.719-20.312 12.273-27.629 7.573-7.337 17.557-11.377 28.111-11.377 16.742 0 31.949 10.532 37.84 26.208 1.099 2.925 3.896 4.862 7.021 4.862h12.149c.425 0 .848.008 1.272.025 4.108.142 7.624-3.067 7.782-7.207.159-4.139-3.066-7.624-7.206-7.783-.616-.023-1.232-.036-1.849-.036h-7.229c-9.217-18.778-28.603-31.07-49.78-31.07-14.471 0-28.161 5.542-38.548 15.603-8.728 8.456-14.345 19.342-16.191 31.176z"/></g></g></svg>