<svg id="Capa_1" enable-background="new 0 0 512 512" viewBox="0 0 512 512" xmlns="http://www.w3.org/2000/svg"><g><g><g><g><path d="m82.162 210.849 47.713-40.228c.714-.602 1.619-.933 2.55-.933 1.091 0 2.112.432 2.876 1.215l1.716 1.761v-65.703c0-6.96 5.663-12.623 12.623-12.623.201 0 .396.021.594.03l-27.819-48.184c-1.381-2.391-4.439-3.211-6.83-1.83l-92.831 53.598c-2.391 1.381-3.211 4.439-1.83 6.83z" fill="#efedef"/></g><g><path d="m102.162 57.497 33.855 58.638v-9.173c0-7.523 6.099-13.622 13.622-13.622l-27.224-47.154c-1.381-2.391-4.439-3.211-6.83-1.83l-18.576 10.724c1.998-.333 4.081.559 5.153 2.417z" fill="#e5e1e5"/></g></g><g><g><path d="m374.982 172.663 1.716-1.76c.765-.784 1.786-1.215 2.877-1.215.931 0 1.836.332 2.55.933l71.697 60.449 7.581 2.031c2.667.715 5.409-.868 6.124-3.536l33.319-124.349c.715-2.667-.868-5.409-3.536-6.124l-103.54-27.742c-2.667-.715-5.409.868-6.124 3.536l-12.664 47.261z" fill="#efedef"/></g><path d="m442.763 220.439 13.332 11.241 5.307 1.422c2.667.715 5.409-.868 6.124-3.536l33.319-124.349c.715-2.667-.868-5.409-3.536-6.124l-22.017-5.899c.664 1.118.898 2.489.535 3.844z" fill="#e5e1e5"/></g><g><g fill="#ffcebf"><path d="m163.261 106.961c0-7.523-6.099-13.622-13.622-13.622s-13.622 6.099-13.622 13.622v64.74l20.331 24.112-.301-4.987c0-6.964 2.75-13.294 7.215-17.976v-65.889z"/><path d="m362.361 93.339c-7.523 0-13.622 6.099-13.622 13.622v65.889c4.465 4.681 7.215 11.011 7.215 17.976l-.301 4.987 20.331-24.112v-64.74c-.001-7.523-6.1-13.622-13.623-13.622z"/></g><path d="m491.473 261.507-108.703-91.651c-2.111-1.78-5.266-1.512-7.045.6l-19.992 23.711c-.649 5.044-2.739 9.641-5.85 13.361l81.117 68.392h-99.437c-8.694 7.859-20.209 12.653-32.824 12.653h-18.928c-.969 12.292-11.274 22-23.811 22s-22.842-9.708-23.811-22h-18.928c-12.615 0-24.13-4.794-32.824-12.653h-58.964c-.29 1.873-1.152 3.602-2.518 4.968l-19.092 19.092c-1.7 1.7-3.96 2.636-6.364 2.636s-4.664-.936-6.364-2.636l-19.092-19.092c-1.7-1.7-2.636-3.96-2.636-6.364s.936-4.664 2.636-6.364l19.092-19.092c1.7-1.7 3.96-2.636 6.364-2.636s4.664.936 6.364 2.636l5.94 5.94 56.314-47.48c-3.111-3.72-5.201-8.317-5.85-13.361l-19.992-23.711c-1.78-2.111-4.934-2.38-7.045-.6l-108.703 91.651c-12.056 10.164-16.22 26.402-10.483 41.166 5.503 14.162 19.443 23.248 34.637 23.248h96.319c2.761 0 5 2.239 5 5v113.103h220v-113.103c0-2.761 2.239-5 5-5h96.319c15.194 0 29.134-9.085 34.637-23.248 5.737-14.764 1.572-31.002-10.483-41.166z" fill="#99e6fc"/><g fill="#62dbfb"><path d="m156.268 194.167-19.992-23.711c-1.78-2.111-4.934-2.38-7.045-.6l-14.005 11.808 16.401 18.839c3.56 4.222 3.023 10.531-1.199 14.091l-36.593 30.853c2.447.081 4.869 1.045 6.737 2.913l6.001 6.001 55.547-46.833c-3.113-3.719-5.203-8.317-5.852-13.361z"/><path d="m491.473 261.507-108.703-91.651c-2.111-1.78-5.266-1.512-7.045.6l-9.45 11.208 94.699 79.843c12.056 10.164 16.22 26.402 10.483 41.166-5.503 14.162-19.443 23.248-34.637 23.248h30.5c15.194 0 29.134-9.085 34.637-23.248 5.736-14.764 1.571-31.002-10.484-41.166z"/></g><path d="m292.271 418.023.288-.505c7.555-13.259 21.71-21.495 36.94-21.495 5.933 0 11.685 1.208 17.097 3.59l1.403.618v-24.208c0-2.206 1.794-4 4-4h9v-27h-134.999c-1.657 0-3 1.343-3 3v70z" fill="#efedef"/><path d="m329 348.023v48.017c.167-.002.333-.017.5-.017 5.933 0 11.685 1.208 17.097 3.59l1.403.618v-24.208c0-2.206 1.794-4 4-4h9v-27h-35c1.657 0 3 1.344 3 3z" fill="#e5e1e5"/><path d="m176 417.023v27h111.373l-.117-1.105c-.175-1.657-.256-3.054-.256-4.395 0-7.841 2.143-15.188 5.862-21.5z" fill="#ffe177"/><path d="m287.256 442.918c-.175-1.657-.256-3.054-.256-4.395 0-7.841 2.143-15.188 5.862-21.5h-29.862v27h24.373z" fill="#ffd15b"/><path d="m161 401.023v-32c0-2.761-2.239-5-5-5h-37c-2.761 0-5 2.239-5 5v32z" fill="#fe646f"/><path d="m156 364.023h-20c2.761 0 5 2.239 5 5v32h20v-32c0-2.761-2.239-5-5-5z" fill="#fd4755"/><path d="m57 405.023c0-2.206 1.794-4 4-4h15v-21c0-2.761-2.239-5-5-5h-37c-2.761 0-5 2.239-5 5v64h28z" fill="#05e39c"/><path d="m56 405.023c0-2.761 2.239-5 5-5h15v-20c0-2.761-2.239-5-5-5h-20c2.761 0 5 2.239 5 5z" fill="#0ed290"/><path d="m86.429 300.686-19.092-19.092c-3.905-3.905-3.905-10.237 0-14.142l19.092-19.092c3.905-3.905 10.237-3.905 14.142 0l19.092 19.092c3.905 3.905 3.905 10.237 0 14.142l-19.092 19.092c-3.905 3.906-10.237 3.906-14.142 0z" fill="#26a6fe"/><path d="m119.663 267.452-19.092-19.092c-3.905-3.905-10.237-3.905-14.142 0l-5.327 5.327 13.765 13.765c3.905 3.905 3.905 10.237 0 14.142l-13.765 13.765 5.327 5.327c3.905 3.905 10.237 3.905 14.142 0l19.092-19.092c3.905-3.905 3.905-10.236 0-14.142z" fill="#0593fc"/><path d="m348 399.151c-5.615-2.643-11.883-4.127-18.5-4.127-24.024 0-43.5 19.476-43.5 43.5 0 1.864.131 3.697.358 5.5h61.642z" fill="#fe646f"/><path d="m348 444.023v-44.873c-5.615-2.643-11.883-4.127-18.5-4.127s-12.885 1.484-18.5 4.127c14.771 6.953 25 21.965 25 39.373 0 1.864-.131 3.697-.358 5.5z" fill="#fd4755"/><g><path d="m388 372.023v-22c0-2.206 1.794-4 4-4h1v-26c0-2.761-2.239-5-5-5h-23c-2.761 0-5 2.239-5 5v52z" fill="#26a6fe"/><path d="m388 315.023h-16c2.761 0 5 2.239 5 5v52h11v-22c0-2.206 1.794-4 4-4h1v-26c0-2.761-2.239-5-5-5z" fill="#0593fc"/><path d="m420 372.023v-22c0-2.761-2.239-5-5-5h-23c-2.761 0-5 2.239-5 5v22z" fill="#ffe177"/><path d="m415 345.023h-14c2.761 0 5 2.239 5 5v22h14v-22c0-2.761-2.239-5-5-5z" fill="#ffd15b"/></g><path d="m401 416.023c0-2.206 1.794-4 4-4h28v-36c0-2.761-2.239-5-5-5h-76c-2.761 0-5 2.239-5 5v68h54z" fill="#bd80e1"/><path d="m408 376.023v36h25v-36c0-2.761-2.239-5-5-5h-25c2.761 0 5 2.239 5 5z" fill="#af66da"/><path d="m478 444.023v-28c0-2.761-2.239-5-5-5h-68c-2.761 0-5 2.239-5 5v28z" fill="#ffe177"/><path d="m473 411.023h-30c2.761 0 5 2.239 5 5v28h30v-28c0-2.761-2.239-5-5-5z" fill="#ffd15b"/><path d="m177 444.023v-39c0-2.761-2.239-5-5-5h-111c-2.761 0-5 2.239-5 5v39z" fill="#26a6fe"/><path d="m172 400.023h-30c2.761 0 5 2.239 5 5v39h30v-39c0-2.761-2.239-5-5-5z" fill="#0593fc"/><g><path d="m256 51.085c-51.218 0-92.739 41.52-92.739 92.738v95.749c0 27.614 22.386 50 50 50h19.027c-.115-.949-.181-1.913-.181-2.893v-19.729c7.637 2.952 15.667 4.447 23.893 4.447s16.256-1.496 23.893-4.447v19.729c0 .98-.066 1.944-.181 2.893h19.027c27.614 0 50-22.386 50-50v-95.749c-.001-51.217-41.521-92.738-92.739-92.738z" fill="#554e56"/><path d="m256 51.085c-3.648 0-7.245.218-10.783.628 32.907 12.962 57.059 43.307 61.16 79.722 9.214 1.786 16.174 9.889 16.174 19.625v53.788c0 16.393-5.938 31.392-15.767 42.99-1.611 18.125-12.418 33.601-27.728 41.735h19.683c27.614 0 50-22.386 50-50v-95.749c-.001-51.218-41.521-92.739-92.739-92.739z" fill="#433f43"/><path d="m256 270.398c-8.809 0-17.212-1.758-24.893-4.923v21.205c0 13.748 11.145 24.893 24.893 24.893s24.893-11.145 24.893-24.893v-21.205c-7.681 3.165-16.084 4.923-24.893 4.923z" fill="#ffb09e"/><g><path d="m256 270.398c-.742 0-1.478-.03-2.214-.055v16.337c0 8.747-4.516 16.436-11.339 20.875 3.901 2.538 8.553 4.018 13.553 4.018 13.748 0 24.893-11.145 24.893-24.893v-21.205c-7.681 3.165-16.084 4.923-24.893 4.923z" fill="#f89580"/></g><g><path d="m190.45 204.848v-37.275c0-1.308.133-2.585.386-3.819h-8.718c-14.951 0-27.071 12.12-27.071 27.071s12.12 27.071 27.071 27.071h9.64c-.855-4.217-1.308-8.581-1.308-13.048z" fill="#ffb09e"/><path d="m329.882 163.755h-8.333v41.094c0 4.467-.453 8.83-1.308 13.049h9.641c14.951 0 27.071-12.12 27.071-27.071s-12.12-27.072-27.071-27.072z" fill="#f89580"/></g><path d="m270 139.317c-3.104 5.126-8.66 8.257-14.652 8.257h-45.898c-11.046 0-20 8.954-20 20v37.275c0 36.755 29.796 66.55 66.55 66.55 36.755 0 66.55-29.796 66.55-66.55v-53.789c0-11.046-8.954-20-20-20h-17.898c-5.992 0-11.548 3.131-14.652 8.257z" fill="#ffcebf"/><path d="m302.55 131.06h-12.182c6.623 3.443 11.154 10.354 11.154 18.334v55.575c0 31.585-21.303 58.177-50.319 66.239 1.586.113 3.182.191 4.798.191 36.755 0 66.55-29.796 66.55-66.55v-53.789c-.001-11.046-8.955-20-20.001-20z" fill="#ffb09e"/></g><path d="m274.679 244.06h-37.358c-5.5 0-10-4.5-10-10v-4.477c0-8.828 7.223-16.052 16.052-16.052h25.254c8.828 0 16.052 7.223 16.052 16.052v4.477c0 5.5-4.5 10-10 10z" fill="#fe99a0"/><path d="m268.627 213.531h-15.976c5.573 3.259 9.348 9.296 9.348 16.184v5.23c0 3.679-1.729 6.97-4.409 9.115h17.088c5.5 0 10-4.5 10-10v-4.477c.001-8.829-7.222-16.052-16.051-16.052z" fill="#fd8087"/></g><path d="m494.5 485.977h-477c-5.523 0-10-4.477-10-10v-22.953c0-5.523 4.477-10 10-10h477c5.523 0 10 4.477 10 10v22.953c0 5.522-4.477 10-10 10z" fill="#f6a96c"/><path d="m494.5 443.023h-40.5v11.977c0 5.523-4.477 10-10 10h-436.5v10.977c0 5.523 4.477 10 10 10h477c5.523 0 10-4.477 10-10v-22.953c0-5.523-4.477-10.001-10-10.001z" fill="#ea9b58"/><circle cx="362.5" cy="40.523" fill="#05e39c" r="14.5"/><path d="m362.5 26.023c-2.749 0-5.31.779-7.5 2.108 4.191 2.542 7 7.133 7 12.392s-2.809 9.85-7 12.392c2.19 1.329 4.751 2.108 7.5 2.108 8.008 0 14.5-6.492 14.5-14.5s-6.492-14.5-14.5-14.5z" fill="#0ed290"/><circle cx="470.5" cy="364.523" fill="#05e39c" r="14.5"/><path d="m470.5 350.023c-2.34 0-4.543.567-6.5 1.552 4.74 2.385 8 7.28 8 12.948s-3.26 10.564-8 12.948c1.957.984 4.16 1.552 6.5 1.552 8.008 0 14.5-6.492 14.5-14.5s-6.492-14.5-14.5-14.5z" fill="#0ed290"/><circle cx="30.5" cy="198.523" fill="#fe646f" r="14.5"/><path d="m30.5 184.023c-2.143 0-4.17.477-6 1.311 5.01 2.284 8.5 7.324 8.5 13.189s-3.49 10.906-8.5 13.189c1.83.834 3.857 1.311 6 1.311 8.008 0 14.5-6.492 14.5-14.5s-6.492-14.5-14.5-14.5z" fill="#fd4755"/></g><g><path d="m114.956 82.032c-2.07-3.587-6.659-4.816-10.245-2.745l-46.269 26.713c-3.587 2.071-4.816 6.658-2.745 10.245 1.389 2.406 3.91 3.751 6.502 3.751 1.272 0 2.562-.324 3.743-1.006l46.269-26.713c3.587-2.071 4.816-6.658 2.745-10.245z"/><path d="m104.25 136.6-21.105 12.185c-3.587 2.071-4.816 6.658-2.745 10.245 1.389 2.406 3.91 3.751 6.502 3.751 1.272 0 2.562-.324 3.743-1.006l21.105-12.185c3.587-2.071 4.816-6.658 2.745-10.245-2.07-3.588-6.659-4.817-10.245-2.745z"/><path d="m470.223 125.291c1.072-4.001-1.302-8.114-5.303-9.186l-51.605-13.828c-4.002-1.068-8.114 1.303-9.186 5.303-1.072 4.001 1.302 8.114 5.303 9.186l51.605 13.828c.65.174 1.304.257 1.946.257 3.312 0 6.342-2.21 7.24-5.56z"/><path d="m463.83 149.15c1.072-4.001-1.302-8.113-5.303-9.186l-51.606-13.828c-4.002-1.072-8.114 1.302-9.186 5.304-1.072 4.001 1.302 8.113 5.303 9.186l51.606 13.828c.65.174 1.304.257 1.946.257 3.312 0 6.343-2.21 7.24-5.561z"/><path d="m452.134 163.826-51.605-13.828c-4.003-1.07-8.114 1.303-9.186 5.304s1.302 8.113 5.303 9.186l51.605 13.828c.65.174 1.304.257 1.946.257 3.312 0 6.342-2.21 7.239-5.561 1.073-4.002-1.301-8.114-5.302-9.186z"/><path d="m256 200.087c4.143 0 7.5-3.358 7.5-7.5s-3.357-7.5-7.5-7.5c-.978 0-1.773-.796-1.773-1.774s.796-1.774 1.773-1.774c4.143 0 7.5-3.358 7.5-7.5s-3.357-7.5-7.5-7.5c-9.249 0-16.773 7.525-16.773 16.774s7.524 16.774 16.773 16.774z"/><path d="m226.108 184.79c4.143 0 7.5-3.358 7.5-7.5v-10.151c0-4.142-3.357-7.5-7.5-7.5s-7.5 3.358-7.5 7.5v10.151c0 4.142 3.358 7.5 7.5 7.5z"/><path d="m285.892 159.639c-4.143 0-7.5 3.358-7.5 7.5v10.151c0 4.142 3.357 7.5 7.5 7.5s7.5-3.358 7.5-7.5v-10.151c0-4.142-3.358-7.5-7.5-7.5z"/><path d="m268.627 206.031h-25.254c-12.986 0-23.552 10.565-23.552 23.552v4.478c0 9.649 7.851 17.5 17.5 17.5h37.357c9.649 0 17.5-7.851 17.5-17.5v-4.478c.001-12.987-10.565-23.552-23.551-23.552zm8.552 28.029c0 1.355-1.145 2.5-2.5 2.5h-37.357c-1.355 0-2.5-1.145-2.5-2.5v-4.478c0-4.715 3.836-8.552 8.552-8.552h25.254c4.716 0 8.552 3.836 8.552 8.552v4.478z"/><path d="m494.5 435.523h-9v-19.5c0-6.893-5.607-12.5-12.5-12.5h-32.5v-27.5c0-6.893-5.607-12.5-12.5-12.5h-.5v-13.5c0-6.893-5.607-12.5-12.5-12.5h-14.5v-4.103h66.787c18.384 0 35.112-11.265 41.628-28.032 6.927-17.828 1.965-37.304-12.641-49.616l-23.631-19.924c.973-1.278 1.698-2.744 2.127-4.342l33.318-124.348c.864-3.225.421-6.594-1.248-9.486-1.67-2.891-4.365-4.959-7.59-5.824l-54.378-14.571c-4.003-1.072-8.114 1.302-9.186 5.303s1.302 8.114 5.303 9.186l51.963 13.923-32.023 119.521-1.324-.355-31.163-26.275 13.416 3.595c.65.174 1.304.257 1.946.257 3.312 0 6.342-2.21 7.239-5.561 1.072-4.001-1.302-8.113-5.303-9.186l-44.298-11.869-13.87-11.695c-1.242-1.048-2.634-1.8-4.089-2.286v-42.437l10.761-40.157 12.939 3.467c4.002 1.069 8.114-1.302 9.186-5.304 1.072-4.001-1.302-8.113-5.303-9.186l-15.355-4.114c-6.653-1.783-13.525 2.181-15.309 8.839l-4.726 17.639c-3.636-2.962-8.27-4.745-13.315-4.745-7.726 0-14.478 4.183-18.161 10.391-3.764-6.947-8.327-13.399-13.561-19.238l7.665-7.665c2.929-2.929 2.929-7.678 0-10.606-2.93-2.929-7.678-2.929-10.607 0l-7.87 7.87c-16.591-13.735-37.664-22.233-60.665-22.95l-15.389-15.389c-2.93-2.929-7.678-2.929-10.607 0s-2.929 7.678 0 10.606l6.128 6.128c-18.032 3.038-34.442 10.906-47.854 22.226l-9.81-11.143c-2.738-3.109-7.478-3.411-10.586-.674s-3.41 7.476-.674 10.585l10.34 11.746c-4.962 5.645-9.303 11.847-12.91 18.505-2.923-4.927-7.778-8.569-13.525-9.862l-25.365-43.931c-3.444-5.968-11.104-8.022-17.075-4.575l-92.83 53.596c-2.893 1.669-4.961 4.365-5.825 7.59s-.421 6.594 1.249 9.485l57.602 99.768-56.305 47.472c-14.606 12.313-19.568 31.789-12.641 49.617 6.516 16.767 23.244 28.032 41.628 28.032h26.319c4.143 0 7.5-3.358 7.5-7.5s-3.357-7.5-7.5-7.5h-26.319c-12.245 0-23.354-7.42-27.646-18.464-4.568-11.758-1.301-24.6 8.326-32.716l106.792-90.039 15.732 18.658c.567 3.866 1.782 7.521 3.52 10.864l-44.433 37.463-1.129-1.129c-6.824-6.823-17.926-6.823-24.75 0l-19.092 19.092c-6.823 6.823-6.823 17.926 0 24.749l19.092 19.092c3.412 3.412 7.894 5.118 12.375 5.118s8.963-1.706 12.375-5.118l19.092-19.092c1.063-1.063 1.941-2.239 2.673-3.478h48.483c10.027 8.507 22.99 13.653 37.139 13.653h12.066c4.341 12.777 16.446 22 30.672 22s26.331-9.223 30.672-22h12.066c14.149 0 27.112-5.147 37.139-13.653h95.121c4.143 0 7.5-3.358 7.5-7.5 0-2.3-1.037-4.355-2.667-5.731l-75.269-63.465c1.738-3.342 2.954-6.997 3.521-10.863l15.731-18.659 106.793 90.04c9.627 8.116 12.895 20.957 8.326 32.715-4.291 11.044-15.4 18.464-27.646 18.464h-66.902c-.791-6.137-6.037-10.897-12.385-10.897h-23c-6.893 0-12.5 5.607-12.5 12.5v17.5h-126.5c-5.79 0-10.5 4.71-10.5 10.5v61.5h-31v-4.5c0-6.893-5.607-12.5-12.5-12.5h-3.5v-23.5c0-6.893-5.607-12.5-12.5-12.5h-2.5v-25.603c0-6.893-5.607-12.5-12.5-12.5h-35c-4.143 0-7.5 3.358-7.5 7.5s3.357 7.5 7.5 7.5h32.5v23.103h-19.5c-6.893 0-12.5 5.607-12.5 12.5v23.5h-23v-12.5c0-6.893-5.607-12.5-12.5-12.5h-37c-6.893 0-12.5 5.607-12.5 12.5v55.5h-4c-9.649 0-17.5 7.851-17.5 17.5v22.953c0 9.649 7.851 17.5 17.5 17.5h477c9.649 0 17.5-7.851 17.5-17.5v-22.953c0-9.651-7.851-17.502-17.5-17.502zm-238.5-171.625c-32.561 0-59.051-26.49-59.051-59.05v-37.275c0-6.893 5.607-12.5 12.5-12.5h45.898c8.561 0 16.634-4.549 21.068-11.872 1.733-2.863 4.889-4.641 8.236-4.641h17.897c6.893 0 12.5 5.607 12.5 12.5v53.788c.002 32.561-26.487 59.05-59.048 59.05zm-93.453-73.072c0-10.734 8.689-19.471 19.402-19.563v33.585c0 1.869.093 3.715.23 5.549h-.061c-10.792 0-19.571-8.78-19.571-19.571zm167.503 14.022v-33.585c10.714.092 19.403 8.828 19.403 19.563 0 10.792-8.779 19.571-19.571 19.571h-.062c.137-1.834.23-3.68.23-5.549zm11.188-46.655c-3.51-1.226-7.27-1.916-11.188-1.935v-5.198c0-15.164-12.337-27.5-27.5-27.5h-17.897c-8.562 0-16.634 4.549-21.068 11.872-1.733 2.863-4.89 4.642-8.236 4.642h-45.898c-11.129 0-20.729 6.65-25.052 16.181h-2.279c-3.978 0-7.797.684-11.356 1.926v-14.356c0-47 38.237-85.238 85.238-85.238s85.238 38.238 85.238 85.238v14.368zm-257.558 40.285-55.011-95.282 88.501-51.096 21.332 36.947c-4.247 2.65-7.5 6.747-9.025 11.615-2.298-2.728-6.282-3.508-9.477-1.662l-49.206 28.393c-3.587 2.071-4.816 6.658-2.745 10.245 1.39 2.406 3.91 3.751 6.502 3.751 1.272 0 2.562-.324 3.743-1.006l49.206-28.393c.366-.211.701-.455 1.017-.715v50.551c-1.476.495-2.862 1.262-4.088 2.296zm59.837-31.107v-60.41c0-3.376 2.747-6.123 6.123-6.123s6.122 2.747 6.122 6.123v61.528c-1.947 2.294-3.602 4.841-4.904 7.589zm12.245 55.326v13.074l-11.194 8.203c-3.342 2.448-4.065 7.142-1.617 10.483 1.47 2.005 3.747 3.067 6.056 3.067 1.538 0 3.091-.472 4.427-1.451l3.967-2.907c1.32 5.426 3.413 10.549 6.154 15.253h-34.579c-.848-2.287-2.173-4.436-4.007-6.271l-7.318-7.318zm-60.494 72.686c-.637.637-1.381.732-1.768.732s-1.131-.095-1.768-.732l-19.092-19.092c-.638-.637-.732-1.381-.732-1.768s.095-1.131.732-1.768l19.092-19.092c.637-.637 1.381-.732 1.768-.732s1.131.095 1.768.732l19.092 19.092c.638.637.732 1.381.732 1.768 0 .086-.008.195-.022.311-.004.026-.009.052-.012.079-.062.398-.234.915-.698 1.378zm75.494-55.81v-16.101c3.559 1.242 7.379 1.924 11.356 1.924h2.754c5.854 20.23 20.107 36.925 38.735 46.026v10.651h-10.346c-23.434 0-42.499-19.065-42.499-42.5zm85.238 64.5c-9.59 0-17.393-7.803-17.393-17.393v-9.864c5.582 1.349 11.402 2.083 17.393 2.083s11.811-.733 17.393-2.083v9.865c0 9.59-7.803 17.392-17.393 17.392zm32.393-22v-10.651c18.628-9.101 32.88-25.795 38.734-46.025h2.755c3.978 0 7.797-.682 11.356-1.924v16.101c0 23.435-19.065 42.5-42.5 42.5h-10.345zm60.054-13.653c2.659-4.565 4.716-9.521 6.041-14.767l2.87 2.262c1.375 1.084 3.012 1.61 4.637 1.61 2.219 0 4.416-.98 5.896-2.858 2.563-3.253 2.005-7.969-1.249-10.533l-10.403-8.198v-13.237l54.229 45.722h-62.021zm12.694-92.342c-1.3-2.743-2.961-5.279-4.903-7.57v-61.547c0-3.376 2.746-6.123 6.122-6.123s6.122 2.747 6.122 6.123v60.409zm109.359 242.445v17h-63v-17zm-58-66v11h-18v-11zm-45-30h18v2.764c-.018.209-.032.42-.032.634s.014.424.032.634v12.812c-3.591 2.199-6 6.146-6 10.657v13.5h-12zm-137 54h80.5c4.143 0 7.5-3.358 7.5-7.5s-3.357-7.5-7.5-7.5h-80.5v-9h122v11h-.5c-6.893 0-12.5 5.607-12.5 12.5v12.493c-3.272-.653-6.611-.993-10-.993-4.024 0-7.934.483-11.692 1.368-1.187-2.576-3.785-4.368-6.808-4.368h-80.5zm109 27.424v31.576h-45.865c1.531-18.451 17.026-33 35.865-33 3.419 0 6.765.486 10 1.424zm-109-4.424h66.186c-3.457 2.914-6.521 6.277-9.105 10h-57.081zm49.97 25c-1.009 3.528-1.653 7.207-1.874 11h-94.096v-11zm-110.97 11h-106v-28h106zm-48-64h32v21h-32zm-85 11h32v10h-7.5c-6.893 0-12.5 5.607-12.5 12.5v30.5h-12zm460.5 93.454c0 1.378-1.121 2.5-2.5 2.5h-477c-1.379 0-2.5-1.122-2.5-2.5v-22.953c0-1.378 1.121-2.5 2.5-2.5h338.5c4.143 0 7.5-3.358 7.5-7.5s-3.357-7.5-7.5-7.5h-1.5v-57h71v25h-20.5c-6.893 0-12.5 5.607-12.5 12.5v19.5h-1.5c-4.143 0-7.5 3.358-7.5 7.5s3.357 7.5 7.5 7.5h103.5c1.379 0 2.5 1.122 2.5 2.5z"/><path d="m362.5 62.523c12.131 0 22-9.869 22-22s-9.869-22-22-22-22 9.869-22 22 9.869 22 22 22zm0-29c3.859 0 7 3.14 7 7s-3.141 7-7 7-7-3.14-7-7 3.141-7 7-7z"/><path d="m448.5 364.523c0 12.131 9.869 22 22 22s22-9.869 22-22-9.869-22-22-22-22 9.87-22 22zm29 0c0 3.86-3.141 7-7 7s-7-3.14-7-7 3.141-7 7-7 7 3.141 7 7z"/><path d="m30.5 220.523c12.131 0 22-9.869 22-22s-9.869-22-22-22-22 9.869-22 22 9.869 22 22 22zm0-29c3.859 0 7 3.14 7 7s-3.141 7-7 7-7-3.14-7-7 3.141-7 7-7z"/></g></g><g/><g/><g/><g/><g/><g/><g/><g/><g/><g/><g/><g/><g/><g/><g/></svg>