<svg id="Capa_1" enable-background="new 0 0 512 512" height="512" viewBox="0 0 512 512" width="512" xmlns="http://www.w3.org/2000/svg"><g><path d="m503.698 145.46c1.069-1.069 1.069-2.802 0-3.871l-82.343-82.343c-20.296-20.297-47.825-31.699-76.528-31.699h-177.654c-28.704 0-56.232 11.403-76.528 31.699l-82.343 82.343c-1.069 1.069-1.069 2.802 0 3.871l68.282 68.282c1.069 1.069 2.802 1.069 3.872 0l37.215-37.215c1.724-1.724 4.673-.503 4.673 1.936v123.01h57.33c36.745 0 66.532 29.788 66.532 66.532v47.14l28.297 24.991c3.449 3.046 5.363 6.91 5.929 10.883h43.745l12.762-145.865c.182-2.083 1.926-3.681 4.017-3.681h48.702v-123.01c0-2.439 2.948-3.66 4.673-1.936l37.215 37.215c1.069 1.069 2.802 1.069 3.872 0z" fill="#daf1f4"/><g fill="#b9e4ef"><path d="m372.597 174.794c-8.466-8.466-22.941-2.47-22.941 9.502v117.176h40v-109.618z"/><path d="m503.698 141.589-82.343-82.343c-13.712-13.712-30.725-23.365-49.172-28.185 3.194 2.54 6.258 5.271 9.172 8.185l43.972 43.972c22.261 22.261 22.261 58.353 0 80.613l-21.846 21.847 28.064 28.064c1.069 1.069 2.802 1.069 3.872 0l68.282-68.282c1.068-1.069 1.068-2.802-.001-3.871z"/><path d="m263.85 430.729 10.652 9.408c3.449 3.046 5.363 6.91 5.929 10.883h43.745l4.781-54.643c-15.634 19.331-38.84 32.285-65.107 34.352z"/></g><path d="m246.205 415.145-21.138 3.296c-53.684 8.371-108.34 8.371-162.024 0l-21.138-3.296v-47.14c0-36.745 29.787-66.532 66.532-66.532h71.236c36.745 0 66.532 29.787 66.532 66.532z" fill="#7ad0df"/><path d="m187.689 301.951c11.468 11.954 18.516 28.181 18.516 46.054v25.747c0 12.314-8.971 22.792-21.138 24.69-47.409 7.392-95.576 8.256-143.162 2.592v14.112l21.138 3.296c53.684 8.371 108.34 8.371 162.024 0l21.138-3.296v-47.14c0-34.033-25.551-62.096-58.516-66.055z" fill="#70c6da"/><path d="m165.767 301.473h-43.424v-11.868c0-7.267 5.891-13.158 13.158-13.158h17.107c7.267 0 13.158 5.891 13.158 13.158v11.868z" fill="#dd5790"/><path d="m274.502 440.136-28.297-24.991-21.138 3.296c-53.684 8.371-108.34 8.371-162.024 0l-21.138-3.296-28.297 24.991c-11.061 9.769-6.345 27.962 8.068 31.128 80.625 17.71 164.132 17.71 244.757 0 14.414-3.166 19.13-21.359 8.069-31.128z" fill="#dd5790"/><path d="m274.502 440.136-28.297-24.991-14.75 2.3 3.047 2.691c11.061 9.769 6.345 27.962-8.068 31.128-71.976 15.81-146.25 17.506-218.719 5.087 1.064 6.913 6.053 13.175 13.962 14.913 80.625 17.71 164.132 17.71 244.757 0 14.413-3.166 19.129-21.359 8.068-31.128z" fill="#da387d"/><path d="m342.564 27.547h-173.128c0 47.732 38.833 86.565 86.564 86.565s86.564-38.833 86.564-86.565z" fill="#dd5790"/><path d="m317.565 27.547c0 34.001-27.563 61.565-61.565 61.565s-61.565-27.563-61.565-61.565z" fill="#7ad0df"/><path d="m148.792 329.914 6.036 18.578c.345 1.062 1.334 1.78 2.45 1.78h19.535c4.824 0 6.83 6.174 2.927 9.009l-15.804 11.482c-.903.656-1.281 1.819-.936 2.88l6.036 18.578c1.491 4.588-3.761 8.404-7.664 5.568l-15.804-11.482c-.903-.656-2.126-.656-3.029 0l-15.804 11.482c-3.903 2.836-9.155-.98-7.664-5.568l6.036-18.578c.345-1.062-.033-2.224-.936-2.88l-15.804-11.482c-3.903-2.836-1.897-9.009 2.927-9.009h19.534c1.116 0 2.105-.719 2.45-1.78l6.036-18.578c1.496-4.588 7.987-4.588 9.478 0z" fill="#f4dd45"/><path d="m263.979 160.467 10.169 31.296c.581 1.788 2.247 2.999 4.127 2.999h32.906c8.127 0 11.506 10.399 4.931 15.176l-26.622 19.342c-1.521 1.105-2.158 3.064-1.577 4.852l10.169 31.296c2.511 7.729-6.335 14.156-12.91 9.379l-26.622-19.342c-1.521-1.105-3.581-1.105-5.102 0l-26.622 19.342c-6.575 4.777-15.421-1.65-12.91-9.379l10.169-31.296c.581-1.788-.055-3.747-1.577-4.852l-26.622-19.342c-6.575-4.777-3.196-15.176 4.931-15.176h32.906c1.88 0 3.546-1.211 4.127-2.999l10.169-31.296c2.514-7.729 13.448-7.729 15.96 0z" fill="#f4dd45"/><path d="m491.755 481.379h-165.834c-2.366 0-4.224-2.027-4.017-4.384l15.034-171.841c.182-2.083 1.926-3.681 4.017-3.681h135.765c2.091 0 3.835 1.598 4.017 3.681l15.034 171.841c.207 2.357-1.65 4.384-4.016 4.384z" fill="#dd5790"/><path d="m495.772 476.995-15.034-171.841c-.182-2.083-1.926-3.681-4.017-3.681h-34.555l10.519 120.236c1.866 21.326-14.943 39.67-36.351 39.67h-93.064l-1.366 15.616c-.206 2.357 1.651 4.384 4.017 4.384h165.834c2.366 0 4.223-2.027 4.017-4.384z" fill="#da387d"/><path d="m414.12 350.79 6.732 20.718c.385 1.184 1.488 1.985 2.732 1.985h21.785c5.38 0 7.617 6.885 3.265 10.047l-17.624 12.805c-1.007.732-1.428 2.028-1.044 3.212l6.732 20.719c1.663 5.117-4.194 9.372-8.547 6.209l-17.624-12.805c-1.007-.732-2.371-.732-3.378 0l-17.624 12.805c-4.353 3.162-10.209-1.093-8.547-6.209l6.732-20.719c.385-1.184-.037-2.481-1.044-3.212l-17.624-12.805c-4.353-3.162-2.116-10.047 3.264-10.047h21.785c1.245 0 2.348-.801 2.732-1.985l6.732-20.718c1.663-5.116 8.902-5.116 10.565 0z" fill="#f4dd45"/><path d="m449.297 382.983c2.593-2.528 1.927-6.651-.745-8.517z" fill="#f1d333"/><path d="m131.146 403.858 12.91-9.379 12.909 9.379c4.379 3.184 10.274 3.194 14.672 0 4.388-3.188 6.209-8.796 4.533-13.953l-4.931-15.177 12.909-9.379c4.388-3.188 6.21-8.795 4.534-13.954-1.676-5.157-6.446-8.623-11.869-8.623h-15.958l-4.931-15.176s0 0 0-.001c-1.676-5.157-6.446-8.623-11.869-8.623-5.424 0-10.194 3.466-11.87 8.624l-4.931 15.176h-15.957c-5.424 0-10.193 3.466-11.87 8.624-1.676 5.158.146 10.766 4.534 13.953l12.91 9.38-4.932 15.177c-1.676 5.158.146 10.766 4.535 13.953 4.389 3.189 10.286 3.186 14.672-.001zm10.513-71.627.002.007c-.001-.002-.001-.004-.002-.007zm-10.827 25.541c4.38 0 8.23-2.799 9.583-6.963l3.641-11.203 3.64 11.202c1.353 4.165 5.203 6.964 9.583 6.964h11.78l-9.53 6.924c-3.542 2.573-5.013 7.1-3.66 11.266l3.64 11.203-9.527-6.922c-3.539-2.575-8.303-2.578-11.848-.002l-9.53 6.924 3.641-11.204c1.353-4.164-.118-8.691-3.661-11.265l-9.53-6.924z"/><path d="m311.181 187.262h-30.609l-9.46-29.112c-2.167-6.67-8.099-10.979-15.111-10.979s-12.944 4.31-15.111 10.979l-9.46 29.112h-30.609c-7.013 0-12.945 4.31-15.111 10.979-2.167 6.67.099 13.643 5.772 17.764l24.764 17.992-9.459 29.112c-2.167 6.669.098 13.643 5.771 17.765 5.672 4.121 13.005 4.121 18.679 0l24.763-17.992 24.765 17.992c5.673 4.123 13.004 4.122 18.679 0 5.674-4.122 7.938-11.096 5.771-17.765l-9.459-29.112 24.764-17.991c5.674-4.122 7.939-11.095 5.772-17.765-2.166-6.67-8.099-10.979-15.111-10.979zm.522 16.608-26.621 19.342c-4.163 3.024-5.891 8.344-4.301 13.237l10.168 31.295c.079.245.199.615-.323.994-.523.382-.838.151-1.045.001l-26.62-19.341c-4.161-3.025-9.756-3.029-13.92-.001l-26.622 19.342c-.208.15-.522.382-1.045-.001-.522-.379-.402-.749-.323-.994l10.168-31.294c1.59-4.895-.138-10.214-4.301-13.238l-26.621-19.343c-.208-.15-.522-.379-.323-.993s.589-.614.846-.614h32.906c5.145 0 9.67-3.288 11.26-8.182l10.169-31.296c.08-.244.199-.614.846-.614s.766.37.846.614l10.169 31.297c1.59 4.893 6.115 8.181 11.26 8.181h32.906c.257 0 .646 0 .846.614s-.117.843-.325.994z"/><path d="m364.634 389.608 14.904 10.829-5.692 17.521c-1.753 5.396.152 11.261 4.741 14.596 4.599 3.341 10.766 3.328 15.346 0l14.905-10.829 14.904 10.829c4.589 3.334 10.756 3.334 15.345 0 4.59-3.334 6.496-9.199 4.743-14.595l-5.692-17.521 14.902-10.828c4.591-3.334 6.497-9.199 4.744-14.595s-6.742-9.021-12.415-9.021h-18.424l-5.692-17.521v-.001c-1.754-5.395-6.743-9.02-12.417-9.019-5.672 0-10.661 3.625-12.413 9.02l-5.693 17.521h-18.423c-5.673 0-10.662 3.625-12.415 9.021-1.753 5.394.153 11.259 4.742 14.593zm29.457-8.614c4.511 0 8.476-2.882 9.865-7.168l4.882-15.022 4.881 15.023c1.394 4.287 5.358 7.167 9.865 7.167h15.795l-12.782 9.286c-3.644 2.65-5.156 7.311-3.764 11.596l4.881 15.022-12.779-9.284c-3.646-2.648-8.546-2.648-12.194 0l-12.778 9.283 4.881-15.021c1.392-4.285-.121-8.944-3.769-11.598l-12.778-9.284z"/><path d="m426.244 219.048c3.995 3.99 10.488 3.987 14.476-.002l68.282-68.282c1.934-1.935 2.998-4.505 2.998-7.239s-1.064-5.305-2.998-7.239l-82.343-82.343c-21.858-21.857-50.92-33.896-81.832-33.896h-177.654c-30.912 0-59.974 12.038-81.832 33.896l-82.343 82.342c-1.934 1.935-2.998 4.505-2.998 7.239s1.064 5.305 2.998 7.239l68.282 68.282c3.989 3.989 10.483 3.991 14.479 0l29.085-29.087v104.014h-6.406c-40.821 0-74.032 33.211-74.032 74.032v43.759l-25.762 22.753c-7.245 6.398-10.239 16.186-7.813 25.543 2.425 9.356 9.797 16.458 19.237 18.531 81.11 17.817 166.863 17.818 247.976 0 9.853-2.164 17.594-9.868 19.586-20.07h28.362l-1.559 17.822c-.28 3.213.808 6.419 2.986 8.796 2.179 2.378 5.278 3.741 8.503 3.741h165.834c3.225 0 6.324-1.363 8.503-3.741 2.179-2.377 3.267-5.583 2.986-8.796l-15.035-171.843c-.526-6.001-5.466-10.526-11.489-10.526h-16.218c-.868-27.747-23.711-50.052-51.665-50.052-4.016 0-7.927.46-11.682 1.331v-55.293zm-236.753-172.83c1.121 4.001 5.268 6.314 9.244 5.199 3.989-1.117 6.316-5.256 5.199-9.244-.654-2.336-1.149-4.717-1.483-7.126h107.094c-3.661 26.275-26.278 46.564-53.545 46.564-13.467 0-26.369-4.98-36.33-14.025-3.066-2.785-7.81-2.556-10.595.511-2.784 3.067-2.556 7.811.511 10.595 12.728 11.556 29.211 17.92 46.414 17.92 35.548 0 64.91-26.997 68.66-61.564h10.052c-3.79 40.092-37.644 71.564-78.711 71.564-41.068 0-74.922-31.472-78.711-71.564h10.051c.408 3.78 1.127 7.517 2.15 11.17zm18.843 270.191c18.101 10.095 30.371 29.439 30.371 51.596v40.72l-11.946 1.863v-36.788c0-20.588-5.936-41.45-18.425-57.391zm-50.066-22.436h-28.424v-4.367c0-3.12 2.538-5.658 5.658-5.658h17.106c3.12 0 5.659 2.538 5.659 5.658v4.367zm-108.863 74.032c0-22.156 12.27-41.501 30.371-51.596-12.495 15.949-18.425 36.816-18.425 57.391v36.787l-11.946-1.863zm223.356 88.29c-1.016 3.918-3.982 6.776-7.937 7.645-79.008 17.355-162.53 17.355-241.538 0-3.954-.868-6.921-3.727-7.937-7.645-1.015-3.918.189-7.857 3.224-10.537l25.657-22.66 17.659 2.753c10.338 1.612 20.861 2.936 31.278 3.935 4.11.395 7.786-2.626 8.182-6.75.396-4.123-2.627-7.786-6.75-8.182-6.066-.582-12.168-1.277-18.247-2.078v-38.976c0-35.746 20.522-64.827 45.748-64.827h43.911c25.226 0 45.748 29.081 45.748 64.827v38.977c-27.233 3.583-54.851 5.009-82.271 4.238-4.182-.098-7.591 3.146-7.708 7.286-.116 4.141 3.146 7.592 7.286 7.708 32.384.912 65.092-1.157 97.157-6.157l17.658-2.753 25.657 22.66c1.9 1.678 3.082 3.85 3.452 6.201.01.084.023.168.036.252.174 1.326.092 2.705-.265 4.083zm136.077-197.374c19.682 0 35.793 15.578 36.654 35.052h-48.335v-33.145c3.67-1.237 7.599-1.907 11.681-1.907zm-36.654 35.052c.401-9.083 4.12-17.318 9.972-23.521v23.521zm-15.011 0h-16.218c-6.023 0-10.963 4.525-11.489 10.528l-3.657 41.799c-.36 4.126 2.691 7.764 6.818 8.125 4.1.353 7.764-2.69 8.125-6.818l3.38-38.634h129.412l14.427 164.906h-158.267l1.934-22.099c.006-.064.012-.128.017-.193l5.9-67.434c.36-4.126-2.691-7.764-6.818-8.125-4.095-.358-7.764 2.691-8.125 6.818l-5.308 60.673h-31.284c-1.463-3.377-3.672-6.459-6.553-9.004l-25.762-22.752v-43.759c0-40.821-33.211-74.032-74.032-74.032h-6.405v-4.367c0-11.391-9.268-20.658-20.659-20.658h-17.106c-1.961 0-3.859.275-5.658.788v-173.817c0-4.143-3.357-7.5-7.5-7.5s-7.5 3.357-7.5 7.5v73.477c-.896.472-1.733 1.084-2.478 1.828l-33.847 33.848-61.547-61.547 78.975-78.974c17.858-17.858 41.24-28.185 66.293-29.385 3.891 48.318 44.456 86.446 93.759 86.446s89.868-38.128 93.759-86.446c25.053 1.199 48.436 11.526 66.293 29.385l78.976 78.975-61.547 61.547-33.849-33.85c-.743-.743-1.58-1.354-2.476-1.826v-73.478c0-4.143-3.357-7.5-7.5-7.5s-7.5 3.357-7.5 7.5v155.436c-14.539 8.798-24.417 24.555-24.983 42.619z"/></g></svg>