<svg id="Filled" height="512" viewBox="0 0 512 512" width="512" xmlns="http://www.w3.org/2000/svg"><path d="m319.934 193.458 6.063-101.011-55.756-84.447 225.759 38.894z" fill="#fbe9d8"/><rect fill="#ffb632" height="208" rx="32" width="272" x="160" y="296"/><path d="m316.323 200.6a8 8 0 0 0 8.729-.991l176.066-146.566a8 8 0 0 0 -3.76-14.032l-225.758-38.895a8 8 0 0 0 -8.035 12.292l54.288 82.221-5.9 98.35a8 8 0 0 0 4.37 7.621zm-29.218-181.577 190.455 32.813-148.532 123.643 4.609-76.8 71.7-19.212a8 8 0 1 0 -4.14-15.455l-71.697 19.214z"/><path d="m152 328v144a40.045 40.045 0 0 0 40 40h208a40.045 40.045 0 0 0 40-40v-144a40.045 40.045 0 0 0 -40-40h-208a40.045 40.045 0 0 0 -40 40zm248 168h-208a24.028 24.028 0 0 1 -24-24v-129.294l106.27 68.763a40.064 40.064 0 0 0 43.46 0l106.27-68.763v129.294a24.028 24.028 0 0 1 -24 24zm23.639-172.119-114.6 74.154a24.038 24.038 0 0 1 -26.077 0l-114.6-74.154a24.035 24.035 0 0 1 23.638-19.881h208a24.034 24.034 0 0 1 23.639 19.881z"/><path d="m209.715 136.478a8 8 0 0 0 2.791-.5c7.043-2.623 14.278-5.2 21.5-7.648a8 8 0 1 0 -5.139-15.152c-7.375 2.5-14.76 5.128-21.95 7.806a8 8 0 0 0 2.794 15.5z"/><path d="m43.276 374.663a8 8 0 0 0 .4 11.307 112.626 112.626 0 0 0 19.824 14.754 8 8 0 0 0 8.083-13.809 96.536 96.536 0 0 1 -17-12.653 8 8 0 0 0 -11.307.401z"/><path d="m254.371 113.312a7.993 7.993 0 0 0 9.933 5.416c9.893-2.913 17.425-4.908 22-6.069a8 8 0 1 0 -3.934-15.508c-4.71 1.2-12.451 3.245-22.584 6.227a8 8 0 0 0 -5.415 9.934z"/><path d="m11.177 277.87a109.447 109.447 0 0 0 -3.164 24.437 8 8 0 0 0 7.876 8.122h.126a8 8 0 0 0 8-7.877 93.418 93.418 0 0 1 2.7-20.859 8 8 0 0 0 -15.536-3.824z"/><path d="m176.794 132.965c-7.273 3.09-14.446 6.291-21.319 9.514a8 8 0 1 0 6.794 14.486c6.695-3.141 13.687-6.261 20.78-9.274a8 8 0 1 0 -6.255-14.726z"/><path d="m110.335 183.718a7.96 7.96 0 0 0 4.188-1.19c6.2-3.817 12.783-7.63 19.573-11.332a8 8 0 0 0 -7.659-14.048c-7.036 3.837-13.868 7.792-20.3 11.757a8 8 0 0 0 4.2 14.813z"/><path d="m89.386 403.744a8 8 0 0 0 6.06 9.554 112.6 112.6 0 0 0 24.554 2.702 8 8 0 0 0 0-16 96.616 96.616 0 0 1 -21.06-2.315 8 8 0 0 0 -9.554 6.059z"/><path d="m79.021 187.311c-6.53 4.914-12.7 9.972-18.335 15.034a8 8 0 0 0 10.691 11.9c5.294-4.755 11.1-9.517 17.264-14.153a8 8 0 0 0 -9.62-12.785z"/><path d="m48.954 225.173a8 8 0 0 0 -11.247 1.221 155.234 155.234 0 0 0 -13.707 19.947 8 8 0 1 0 13.878 7.959 139.463 139.463 0 0 1 12.3-17.881 8 8 0 0 0 -1.224-11.246z"/><path d="m28.05 331.686a8 8 0 1 0 -15.322 4.607 111.556 111.556 0 0 0 9.7 22.739 8 8 0 1 0 13.929-7.873 95.5 95.5 0 0 1 -8.307-19.473z"/></svg>