<?xml version="1.0" encoding="iso-8859-1"?>
<!-- Generator: Adobe Illustrator 19.0.0, SVG Export Plug-In . SVG Version: 6.00 Build 0)  -->
<svg version="1.1" id="Layer_1" xmlns="http://www.w3.org/2000/svg" xmlns:xlink="http://www.w3.org/1999/xlink" x="0px" y="0px"
	 viewBox="0 0 512 512" style="enable-background:new 0 0 512 512;" xml:space="preserve">
<path style="fill:#FFFFFF;" d="M248.793,369.921L142.092,263.22l1.822-6.678c16.366-60.01,47.876-114.903,91.91-158.836
	c0.666-0.665-0.649,0.656,0.01,0.01C305.07,29.703,404.437-3.427,500.303,11.71l0,0l0,0c15.136,95.866-17.994,195.234-86.006,264.47
	c-0.647,0.659,0.675-0.656,0.01,0.01c-43.933,44.034-98.826,75.544-158.836,91.91L248.793,369.921z"/>
<path style="fill:#D8D7DA;" d="M500.303,11.71L500.303,11.71c-46.148-7.286-93.107-3.383-137.126,10.206l126.92,126.919
	C503.687,104.815,507.589,57.858,500.303,11.71L500.303,11.71z"/>
<g>
	<path style="fill:#FF6243;" d="M496.495,124.747c8.233-36.847,9.779-75.214,3.808-113.037l0,0l0,0
		c-37.823-5.972-76.19-4.425-113.037,3.808L496.495,124.747z"/>
	<path style="fill:#FF6243;" d="M223.676,342.228c-6.466-6.466-54.741-54.741-61.924-61.924
		c-14.469-14.469-142.866,8.032-142.866,105.038c0,0,37.114-20.129,43.114-10.778c0,0-53.706,64.247-53.892,129.342
		c64.857,0,118.563-53.892,118.563-53.892c7.259,4.462-10.778,43.114-10.778,43.114
		C212.897,493.127,238.146,356.698,223.676,342.228z"/>
</g>
<path style="fill:#E55841;" d="M161.751,280.304c-4.194-4.194-17.968-5.273-35.404-2.341l15.744,15.743l-22.864,22.864
	l76.215,76.215l22.864-22.864l7.477,7.477c2.88-17.502,1.944-31.119-2.107-35.169C217.211,335.762,168.936,287.489,161.751,280.304z
	"/>
<path style="fill:#FFDA44;" d="M32.567,479.396c8.72-39.413,34.758-77.593,45.971-91.007l10.152-12.145l-8.549-13.322
	c-5.054-7.876-13.945-12.393-24.395-12.393c-2.328,0-4.797,0.239-7.338,0.661c6.357-12.351,16.503-23.109,30.379-32.175
	c22.25-14.536,49.593-21.156,65.582-21.156c2.145,0,3.68,0.122,4.702,0.25l56.701,56.702c1.553,12.029-4.669,52.356-28.103,83.519
	c-8.462,11.253-18.016,19.675-28.588,25.226c1.978-11.373,1.081-24.408-11.124-31.91l-14.524-8.927l-12.034,12.075
	C111.024,435.171,76.48,469.069,32.567,479.396z"/>
<path style="fill:#DBBC3A;" d="M205.773,354.812l-56.701-56.702c-1.022-0.128-2.557-0.25-4.702-0.25
	c-2.077,0-4.348,0.114-6.772,0.341l-18.371,18.371l76.215,76.215l6.469-6.469C205.528,372.193,206.497,360.422,205.773,354.812z"/>
<path style="fill:#FFFFFF;" d="M56.937,466.507l-11.432-11.432l12.299-12.299l11.432,11.432L56.937,466.507z M80.668,442.776
	l-11.433-11.432l62.497-62.497l11.432,11.432L80.668,442.776z"/>
<rect x="178.089" y="220.768" transform="matrix(0.7071 -0.7071 0.7071 0.7071 -124.6894 248.292)" style="fill:#D8D7DA;" width="118.562" height="107.784"/>
<g>
	
		<rect x="185.97" y="229.027" transform="matrix(-0.7071 -0.7071 0.7071 -0.7071 164.9957 655.7368)" style="fill:#FF6243;" width="64.67" height="129.34"/>
	<path style="fill:#FF6243;" d="M142.092,263.22l1.822-6.678c10.851-39.785,28.364-77.316,51.763-110.9l-55.968-21.901
		L92.574,244.189l50.084,19.598L142.092,263.22z"/>
	<path style="fill:#FF6243;" d="M366.371,316.337c-33.584,23.399-71.115,40.912-110.9,51.763l-6.678,1.822l-0.568-0.568
		l19.598,50.084l120.448-47.132L366.371,316.337z"/>
</g>
<path style="fill:#E55841;" d="M121.816,255.632l20.842,8.156l-0.568-0.568l1.822-6.678c10.851-39.785,28.364-77.316,51.763-110.9
	l-20.592-8.058c-23.253,34.384-40.892,72.679-51.966,113.286L121.816,255.632z"/>
<circle style="fill:#D8D7DA;" cx="369.184" cy="169.773" r="64.671"/>
<circle style="fill:#FFDA44;" cx="369.184" cy="142.826" r="64.671"/>
<path style="fill:#DBBC3A;" d="M374.574,105.102c26.5,0,49.265,15.947,59.256,38.76c0.005-0.346,0.026-0.689,0.026-1.036
	c0-35.717-28.954-64.671-64.671-64.671s-64.671,28.954-64.671,64.671c0,9.217,1.941,17.975,5.415,25.91
	C310.487,133.5,339.206,105.102,374.574,105.102z"/>
<path style="fill:#FFFFFF;" d="M369.19,194.024c-0.002,0-0.003,0-0.004,0l0.001-16.168c0.001,0,0.002,0,0.003,0
	c4.387,0,8.663-0.799,12.707-2.376l5.87,15.065C381.844,192.854,375.593,194.024,369.19,194.024z M403.94,180.422l-10.978-11.87
	c7.152-6.614,11.253-15.99,11.253-25.725h16.168C420.383,157.054,414.39,170.757,403.94,180.422z"/>
<g>
	<path style="fill:#E55841;" d="M366.371,316.337c-33.584,23.399-71.115,40.912-110.9,51.763l-6.678,1.822l-0.568-0.568
		l8.156,20.842l4.762-1.299c40.607-11.075,78.902-28.714,113.286-51.967L366.371,316.337z"/>
	<path style="fill:#E55841;" d="M202.119,309.893c-13.952,0-27.458-1.902-40.282-5.446l-12.124,12.125l45.729,45.729l63.471-63.471
		C241.382,305.956,222.211,309.893,202.119,309.893z"/>
	<path style="fill:#E55841;" d="M442.188,70.439l54.307,54.307c6.164-27.591,8.579-56.032,6.897-84.46
		C486.387,55.344,465.391,65.99,442.188,70.439z"/>
</g>
<path d="M398.745,376.888l-22.55-57.629c15.573-11.258,30.244-23.738,43.833-37.357c0.151-0.151,0.293-0.304,0.43-0.458
	c34.189-34.932,60.364-78.144,75.706-124.998c1.72-5.252,3.293-10.545,4.734-15.865l0.281,0.281l3.207-14.353
	c0.086-0.384,0.16-0.767,0.244-1.151c0.282-1.29,0.553-2.583,0.819-3.876c0.357-1.727,0.697-3.454,1.025-5.183
	c0.056-0.293,0.111-0.586,0.165-0.88c5.355-28.643,6.702-57.428,4.026-85.92c-0.071-0.771-0.148-1.539-0.224-2.309
	c-0.106-1.04-0.206-2.081-0.322-3.12c-0.206-1.858-0.435-3.713-0.676-5.566c-0.08-0.612-0.163-1.223-0.247-1.836
	c-0.283-2.077-0.58-4.152-0.906-6.221l-0.917-5.807l-5.807-0.917c-2.065-0.326-4.136-0.622-6.208-0.904
	c-0.621-0.085-1.242-0.169-1.863-0.25c-1.842-0.239-3.685-0.467-5.534-0.673c-1.068-0.12-2.138-0.223-3.208-0.332
	c-0.73-0.073-1.459-0.146-2.189-0.213c-28.534-2.685-57.359-1.334-86.041,4.035c-0.244,0.045-0.486,0.091-0.73,0.137
	c-1.831,0.347-3.661,0.709-5.492,1.089c-1.209,0.25-2.419,0.502-3.627,0.767c-0.39,0.085-0.78,0.161-1.171,0.248l-14.353,3.207
	l0.28,0.28c-5.32,1.441-10.612,3.014-15.865,4.733c-46.853,15.342-90.065,41.517-124.998,75.706
	c-0.153,0.135-0.305,0.278-0.455,0.427c-13.62,13.588-26.101,28.261-37.359,43.835l-57.629-22.551L82.101,248.771l56.038,21.928
	l23.007,23.007l-22.864,22.864l57.161,57.161l22.864-22.864l23.007,23.007l21.928,56.038L398.745,376.888z M465.29,16.382
	c0.031,0.001,0.063,0.002,0.094,0.003c1.782,0.07,3.562,0.158,5.342,0.261c0.092,0.005,0.183,0.01,0.275,0.015
	c1.812,0.107,3.623,0.231,5.432,0.372c0.119,0.01,0.236,0.02,0.355,0.03c1.551,0.123,3.101,0.261,4.65,0.409
	c0.503,0.049,1.008,0.099,1.511,0.15c1.232,0.124,2.463,0.257,3.693,0.397c0.504,0.057,1.009,0.113,1.512,0.172
	c1.677,0.199,3.352,0.41,5.027,0.639c0.231,1.681,0.441,3.365,0.641,5.049c0.057,0.479,0.11,0.958,0.165,1.438
	c0.144,1.271,0.281,2.543,0.41,3.816c0.046,0.461,0.094,0.923,0.138,1.385c0.157,1.646,0.305,3.292,0.434,4.94
	c0.002,0.024,0.004,0.047,0.006,0.071c0.144,1.853,0.272,3.708,0.38,5.564c0,0.002,0,0.003,0,0.005
	c1.308,22.325,0.024,44.815-3.848,67.231l-87.823-87.823C424.22,16.958,444.816,15.581,465.29,16.382z M241.17,103.789
	c0.11-0.099,0.219-0.202,0.327-0.307c40.172-39.461,89.994-66.542,143.111-79.189L487.72,127.405
	c-12.649,53.117-39.729,102.94-79.192,143.112c-0.105,0.107-0.206,0.214-0.304,0.323c-14.537,14.526-30.364,27.7-47.249,39.391
	c-1.203,0.833-2.415,1.652-3.628,2.47c-1.479,0.996-2.965,1.981-4.459,2.954c-0.692,0.452-1.383,0.904-2.078,1.351
	c-1.209,0.776-2.423,1.543-3.642,2.304c-0.475,0.297-0.953,0.592-1.43,0.887c-18.733,11.571-38.601,21.395-59.326,29.307
	c-0.452,0.172-0.904,0.343-1.356,0.513c-1.45,0.546-2.902,1.088-4.359,1.616c-0.622,0.225-1.247,0.442-1.871,0.663
	c-2.066,0.735-4.141,1.45-6.222,2.147c-1.219,0.407-2.438,0.816-3.663,1.21c-0.895,0.289-1.792,0.569-2.689,0.852
	c-1.392,0.437-2.787,0.866-4.185,1.286c-0.744,0.223-1.487,0.448-2.232,0.667c-2.157,0.632-4.318,1.251-6.491,1.844l-2.152,0.587
	l-21.452-21.453l68.594-68.593l-57.161-57.161l-68.593,68.594l-21.453-21.452l0.587-2.152c0.594-2.178,1.215-4.346,1.848-6.508
	c0.213-0.729,0.434-1.455,0.652-2.183c0.426-1.42,0.861-2.836,1.305-4.249c0.276-0.88,0.552-1.76,0.835-2.637
	c0.406-1.261,0.827-2.517,1.247-3.772c0.664-1.981,1.344-3.956,2.043-5.922c0.249-0.703,0.494-1.408,0.747-2.109
	c0.516-1.427,1.047-2.849,1.581-4.267c0.185-0.491,0.371-0.982,0.557-1.472c7.894-20.671,17.693-40.489,29.228-59.18
	c0.329-0.531,0.656-1.064,0.987-1.593c0.736-1.178,1.479-2.353,2.229-3.522c0.489-0.763,0.986-1.521,1.482-2.281
	c0.844-1.294,1.694-2.585,2.556-3.866c0.924-1.374,1.853-2.745,2.797-4.108C213.491,134.129,226.655,118.315,241.17,103.789z
	 M144.289,134.214l39.028,15.272c-0.384,0.585-0.753,1.179-1.135,1.767c-0.231,0.357-0.459,0.715-0.689,1.072
	c-16.604,25.824-29.854,53.582-39.559,82.861c-0.3,0.901-0.6,1.801-0.892,2.704c-0.327,1.01-0.645,2.024-0.963,3.038
	c-0.37,1.177-0.735,2.355-1.093,3.536c-0.265,0.874-0.527,1.75-0.786,2.628c-0.404,1.37-0.799,2.744-1.187,4.121
	c-0.143,0.506-0.295,1.008-0.437,1.514l-33.53-13.122L144.289,134.214z M161.145,316.571l80.026-80.027l34.297,34.297
	l-80.027,80.026L161.145,316.571z M260.803,374.997c1.372-0.388,2.743-0.78,4.11-1.183c0.883-0.26,1.762-0.524,2.643-0.79
	c1.174-0.356,2.345-0.719,3.515-1.086c1.021-0.32,2.041-0.64,3.058-0.969c0.892-0.289,1.782-0.586,2.672-0.882
	c29.289-9.706,57.056-22.959,82.888-39.569c0.357-0.23,0.715-0.457,1.07-0.688c0.587-0.38,1.181-0.75,1.767-1.135l15.272,39.028
	l-105.392,41.241l-13.121-33.53C259.793,375.293,260.297,375.14,260.803,374.997z"/>
<path d="M369.185,215.581c40.117,0,72.755-32.637,72.755-72.755s-32.637-72.755-72.755-72.755s-72.755,32.637-72.755,72.755
	S329.069,215.581,369.185,215.581z M369.185,86.239c31.203,0,56.587,25.384,56.587,56.587s-25.384,56.587-56.587,56.587
	s-56.587-25.384-56.587-56.587S337.984,86.239,369.185,86.239z"/>
<rect x="153.619" y="-4.187" transform="matrix(-0.7071 -0.7071 0.7071 -0.7071 249.3656 178.7504)" width="16.168" height="83.834"/>
<rect x="67.391" y="66.805" transform="matrix(0.7071 0.7071 -0.7071 0.7071 109.7649 -17.0594)" width="16.168" height="114.326"/>
<rect x="8.118" y="171.807" transform="matrix(-0.7071 -0.7071 0.7071 -0.7071 -101.9106 324.2627)" width="16.168" height="22.861"/>
<rect x="455.422" y="379.384" transform="matrix(0.7071 0.7071 -0.7071 0.7071 444.443 -199.8862)" width="16.168" height="114.326"/>
<rect x="396.134" y="484.406" transform="matrix(0.7071 0.7071 -0.7071 0.7071 469.0017 -140.5977)" width="16.168" height="22.861"/>
<rect x="367.679" y="406.897" transform="matrix(-0.7071 0.7071 -0.7071 -0.7071 992.6594 418.7893)" width="83.834" height="16.168"/>
<rect x="447.799" y="361.085" transform="matrix(0.7071 -0.7071 0.7071 0.7071 -127.6526 430.1575)" width="15.241" height="16.168"/>
<rect x="336.849" y="445.365" transform="matrix(0.7071 0.7071 -0.7071 0.7071 440.2005 -103.4149)" width="16.168" height="68.594"/>
<rect x="63.682" y="-5.719" transform="matrix(-0.7071 -0.7071 0.7071 -0.7071 93.2119 121.4826)" width="16.168" height="94.311"/>
<rect x="9.12" y="83.145" transform="matrix(-0.7071 -0.7071 0.7071 -0.7071 -38.5179 176.0587)" width="16.168" height="25.723"/>
<path d="M128.518,484.178c1.028-2.577,2.1-5.385,3.109-8.248c4.869-13.814,8.151-27.349-0.724-32.804l-5.442-3.337l-4.513,4.514
	c-0.492,0.491-47.501,46.872-104.422,51.197c4.436-58.478,51.183-115.16,51.674-115.751l3.807-4.555l-3.207-4.996
	c-7.31-11.393-26.35-4.058-33.517-1.296c-2.559,0.986-5.059,2.038-7.383,3.069c7.969-55.615,65.045-80.194,99.785-86.037
	l-2.681-15.944c-42.418,7.133-114.205,39.455-114.205,115.351l0.002,13.571l11.934-6.464c7.904-4.281,16.584-8.014,23.313-10.221
	c-15.983,22.515-45.881,71.33-46.025,121.655L0,511.989h8.106c46.874,0,87.527-26.074,108.73-42.749
	c-2.12,6.227-5.035,13.528-8.271,20.469l-5.363,11.501h12.688c33.38,0,62.697-15.271,84.782-44.162
	c23.228-30.385,30.876-64.907,33.086-78.339l-15.953-2.626C211.587,413.887,185.909,476.136,128.518,484.178z"/>
<g>
</g>
<g>
</g>
<g>
</g>
<g>
</g>
<g>
</g>
<g>
</g>
<g>
</g>
<g>
</g>
<g>
</g>
<g>
</g>
<g>
</g>
<g>
</g>
<g>
</g>
<g>
</g>
<g>
</g>
</svg>
