<svg id="Capa_1" enable-background="new 0 0 512 512" height="512" viewBox="0 0 512 512" width="512" xmlns="http://www.w3.org/2000/svg"><g><g><g><path d="m111.556 503.607c-11.66-3.451-18.315-15.702-14.864-27.362l19.802-66.905 42.226 12.498-19.802 66.905c-3.452 11.66-15.702 18.315-27.362 14.864z" fill="#e19974"/></g><g><path d="m355.643 503.607c11.66-3.451 18.315-15.702 14.864-27.362l-19.802-66.905-42.226 12.498 19.802 66.905c3.451 11.66 15.702 18.315 27.362 14.864z" fill="#e19974"/></g></g><g><g><path d="m158.718 421.838-19.801 66.906c-3.448 11.659-15.705 18.316-27.364 14.858-1.565-.458-3.029-1.076-4.405-1.844 4.883-2.701 8.739-7.245 10.443-13.014l22.442-72.437z" fill="#dc8758"/></g><g><path d="m355.639 503.602c-5.889 1.744-11.928.917-16.911-1.844 8.859-4.873 13.453-15.416 10.453-25.511l-18.087-61.106 19.612-5.8 19.801 66.906c3.448 11.66-3.199 23.907-14.868 27.355z" fill="#dc8758"/></g></g><g><circle cx="233.599" cy="263.315" fill="#fe646f" r="211.041"/></g><g><path d="m444.638 263.313c0 116.552-94.48 211.042-211.042 211.042-48.72 0-93.573-16.502-129.298-44.235 31.51 18.725 68.321 29.477 107.634 29.477 116.552 0 211.042-94.49 211.042-211.042 0-67.863-32.028-128.241-81.804-166.846 61.953 36.78 103.468 104.344 103.468 181.604z" fill="#fd4755"/></g><g><g><circle cx="233.599" cy="263.315" fill="#f9f8f9" r="167.654"/></g></g><g><g><path d="m401.249 263.313c0 92.596-75.058 167.654-167.654 167.654-24.185 0-47.165-5.122-67.932-14.33 15.256 4.564 31.42 7.015 48.161 7.015 92.586 0 167.654-75.057 167.654-167.654 0-68.411-40.977-127.255-99.721-153.324 69.118 20.698 119.492 84.794 119.492 160.639z" fill="#efedef"/></g></g><g><circle cx="233.599" cy="263.315" fill="#fe646f" r="125.609"/></g><g><path d="m359.206 263.313c0 69.377-56.233 125.611-125.611 125.611-23.358 0-45.232-6.378-63.966-17.489 13.353 4.833 27.763 7.474 42.78 7.474 69.377 0 125.611-56.233 125.611-125.611 0-45.999-24.734-86.228-61.625-108.112 48.302 17.499 82.811 63.787 82.811 118.127z" fill="#fd4755"/></g><g><g><circle cx="233.599" cy="263.315" fill="#f9f8f9" r="80.897"/></g></g><g><g><path d="m314.493 263.313c0 44.684-36.213 80.897-80.897 80.897-16.801 0-32.407-5.122-45.341-13.881 7.852 2.541 16.233 3.916 24.943 3.916 44.674 0 80.897-36.213 80.897-80.897 0-27.883-14.111-52.477-35.576-67.006 32.486 10.493 55.974 40.997 55.974 76.971z" fill="#efedef"/></g></g><g><circle cx="233.599" cy="263.315" fill="#fe646f" r="36.493"/></g><g><path d="m270.088 263.313c0 20.159-16.333 36.492-36.492 36.492-8.321 0-15.994-2.79-22.133-7.474 1.126.11 2.262.159 3.418.159 20.149 0 36.492-16.333 36.492-36.492 0-11.829-5.63-22.352-14.36-29.018 18.556 1.724 33.075 17.339 33.075 36.333z" fill="#fd4755"/></g><g><path d="m439.88 57.035-5.827-46.067c-.416-3.287-4.428-4.661-6.771-2.318l-70.547 70.547c-.931.931-1.342 2.261-1.098 3.555l9.275 49.25z" fill="#fee97d"/></g><g><path d="m439.884 57.034-74.978 74.968-4.424-23.528 76.263-76.263z" fill="#fedf30"/></g><g><path d="m439.88 57.035 46.067 5.827c3.287.416 4.661 4.428 2.318 6.771l-70.547 70.547c-.931.931-2.262 1.342-3.555 1.098l-49.25-9.275z" fill="#fedf30"/></g><g><path d="m488.265 69.63-70.543 70.553c-.937.927-2.262 1.335-3.558 1.096l-21.943-4.136 74.091-74.091c.737-.737 1.106-1.634 1.166-2.531l18.465 2.342c3.289.419 4.664 4.425 2.322 6.767z" fill="#fed402"/></g><path d="m493.548 74.918c3.117-3.117 4.167-7.643 2.74-11.813-1.428-4.17-5.03-7.104-9.403-7.658l-40.318-5.1-5.1-40.317c-.553-4.372-3.486-7.975-7.656-9.403-4.171-1.428-8.698-.378-11.815 2.739l-70.544 70.546c-1.091 1.091-1.919 2.377-2.488 3.763-34.288-21.405-73.94-32.874-115.365-32.874-58.367 0-113.241 22.73-154.512 64.002-41.273 41.272-64.002 96.146-64.002 154.513s22.729 113.241 64.002 154.513c6.812 6.812 14.001 13.107 21.509 18.89l-11.071 37.405c-4.615 15.593 4.316 32.034 19.909 36.649 2.771.82 5.6 1.227 8.411 1.227 4.851 0 9.655-1.21 14.038-3.59 6.922-3.761 11.966-9.992 14.201-17.546l7.171-24.229c25.241 9.968 52.389 15.195 80.344 15.195s55.103-5.227 80.345-15.195l7.171 24.229c2.235 7.554 7.278 13.785 14.2 17.545 4.383 2.381 9.186 3.591 14.038 3.591 2.811 0 5.639-.406 8.411-1.227 13.275-3.929 22.123-16.787 21.037-30.573-.324-4.115-3.921-7.189-8.037-6.864-4.115.324-7.188 3.923-6.864 8.038.534 6.792-3.83 13.128-10.379 15.066-7.589 2.245-15.836-2.26-18.073-9.819-.01-.032-7.695-26-7.695-26 8.963-4.285 17.641-9.198 25.983-14.71l1.027 3.469c1.171 3.958 5.329 6.219 9.288 5.045 3.958-1.171 6.217-5.33 5.045-9.287l-2.492-8.42c7.508-5.783 14.697-12.079 21.509-18.891 41.273-41.272 64.002-96.146 64.002-154.513 0-41.419-11.47-81.065-32.871-115.35 1.387-.568 2.668-1.41 3.759-2.501zm-66.017-55.948 4.474 35.37-62.369 62.369-6.314-33.528zm-295.78 467.652c-2.245 7.584-10.471 12.07-18.074 9.819-7.69-2.276-12.094-10.385-9.819-18.074l9.606-32.455c8.342 5.513 17.019 10.425 25.982 14.71 0 0-7.69 25.983-7.695 26zm305.416-223.306c0 112.247-91.32 203.567-203.567 203.567s-203.567-91.32-203.567-203.567c0-112.248 91.319-203.567 203.566-203.567 43.562 0 83.959 13.77 117.099 37.167l6.138 32.593-4.864 4.864c-31.194-28.66-72.773-46.185-118.373-46.185-96.566 0-175.128 78.562-175.128 175.128 0 96.565 78.562 175.127 175.128 175.127s175.128-78.562 175.128-175.127c0-45.6-17.525-87.179-46.185-118.373l4.864-4.864 32.589 6.137c23.398 33.141 37.172 73.536 37.172 117.1zm-281.138-99.084c2.349 3.394 7.007 4.239 10.399 1.889 19.783-13.7 43.011-20.941 67.171-20.941 29.886 0 57.211 11.161 78.039 29.527l-21.092 21.092c-15.392-13.002-35.268-20.854-56.947-20.854-48.728 0-88.371 39.643-88.371 88.371s39.643 88.371 88.371 88.371 88.372-39.643 88.372-88.371c0-21.679-7.852-41.556-20.854-56.947l21.092-21.092c18.365 20.828 29.527 48.153 29.527 78.039 0 65.14-52.995 118.135-118.136 118.135s-118.136-52.995-118.136-118.135c0-27.22 9.481-53.785 26.694-74.802 2.616-3.193 2.148-7.902-1.046-10.518-3.191-2.615-7.9-2.147-10.517 1.046-19.397 23.681-30.078 53.61-30.078 84.274 0 73.382 59.701 133.083 133.083 133.083s133.083-59.701 133.083-133.083c0-34.008-12.828-65.071-33.891-88.622l19.18-19.181c25.958 28.479 41.808 66.324 41.808 107.802 0 88.323-71.856 160.179-160.18 160.179s-160.18-71.856-160.18-160.179 71.856-160.18 160.18-160.18c41.479 0 79.324 15.849 107.803 41.808l-19.181 19.181c-23.551-21.063-54.614-33.892-88.622-33.892-27.216 0-53.386 8.161-75.681 23.6-3.394 2.351-4.241 7.007-1.89 10.4zm72.285 104.368c1.46 1.459 3.373 2.189 5.285 2.189s3.825-.73 5.285-2.189l19.817-19.817c2.486 4.277 3.917 9.239 3.917 14.532 0 16.001-13.018 29.019-29.02 29.019-16.001 0-29.019-13.018-29.019-29.019 0-16.002 13.018-29.02 29.019-29.02 5.293 0 10.255 1.431 14.532 3.917l-19.818 19.818c-2.917 2.919-2.917 7.652.002 10.57zm30.617-41.187c-7.167-5.072-15.904-8.065-25.332-8.065-24.243 0-43.966 19.723-43.966 43.967 0 24.243 19.723 43.967 43.966 43.967s43.967-19.724 43.967-43.967c0-9.428-2.993-18.166-8.065-25.333l21.003-21.003c10.318 12.647 16.519 28.779 16.519 46.335 0 40.486-32.938 73.423-73.424 73.423-40.485 0-73.423-32.938-73.423-73.423s32.938-73.423 73.423-73.423c17.557 0 33.688 6.201 46.335 16.518zm154.804-93.82-33.529-6.314 62.369-62.369 35.369 4.474z"/></g></svg>