<svg id="Layer_1" enable-background="new 0 0 96 96" height="512" viewBox="0 0 96 96" width="512" xmlns="http://www.w3.org/2000/svg"><g id="Teamwork"><path d="m86.6 58.4-20 19.9-40-40 19.9-20z" fill="#ffba9c"/><path d="m58.3 23c-.9 0-1.3-1.1-.7-1.7l3.9-3.9c.4-.4 1-.4 1.4 0 .2.2.6.9 0 1.4l-3.9 4c-.2.1-.4.2-.7.2z" fill="#302d3d"/><path d="m62.8 34c-.9 0-1.3-1.1-.7-1.7l3.9-3.9c.4-.4 1-.4 1.4 0 .2.2.6.9 0 1.4l-3.9 3.9c-.2.2-.4.3-.7.3z" fill="#302d3d"/><path d="m65 66 14.6-14.5c-11.4-11.5-3.8-3.9-33.1-33.2-23.4 23.4-18.9 18.9-23 23l40.1 40 3.1-3.1-1.8-1.8c-3-2.8-2.9-7.6.1-10.4z" fill="#ffa188"/><path d="m63.6 82.4c-.6 0 2.1 2.5-40.8-40.3-.4-.4-.4-1 0-1.4l23-23c.4-.4 1-.4 1.4 0 2.1 2.1-10.6-10.6 40 40.1.4.4.4 1 0 1.4-24.6 24.5-23.1 23.1-23.6 23.2zm-38.7-41 38.7 38.6 21.6-21.6-38.7-38.7z" fill="#302d3d"/><path d="m78.5 48.3c-2.6 2.6 0 0-15.6 15.6-3.1 3.1-7.5 4.7-11.9 4.1l-2.8-.4c-2.5-.3-4.9.5-6.7 2.3l-5.6 5.6-23.3-23.3 43.4-43.4c2.1-2.1 5.6-2.1 7.7 0s2.1 5.7-.2 7.9l-1.4 1.4c2.2-2.1 5.6-2.1 7.8 0 2 2 2.1 5.6-.2 7.9-1 1-2 2-3 3 2.2-2.1 5.6-2 7.7.2 2 2.1 2 5.6-.2 7.8s-1.4 1.4-3.4 3.4c2.2-2.1 5.6-2.1 7.8 0s2.2 5.7-.1 7.9z" fill="#fbe2c9"/><path d="m76.7 50.1-13.8 13.8c-3.1 3.1-7.5 4.7-11.9 4.1l-2.8-.4c-2.5-.3-4.9.5-6.7 2.3l-7.4 7.4-23.3-23.3 43.4-43.4c2.1-2.1 5.6-2.1 7.7 0s2.1 5.7-.2 7.9l-1.4 1.4c2.2-2.1 5.6-2.1 7.8 0 2 2 2.1 5.6-.1 7.8-.1.1.1-.1-3.2 3.2 2.1-2.1 5.6-2.1 7.7 0s2.1 5.7-.2 7.9l-3.4 3.4c2.1-2.1 5.6-2.1 7.8 0 2.2 2 2.3 5.7 0 7.9z" fill="#fbceab"/><path d="m42.2 29.5c.3 6.7-7.8 10.3-12.6 5.7l10.6-10.6c1.2 1.4 2 3.1 2 4.9z" fill="#fbba8d"/><path d="m34.5 37.3c.3 6.7-7.8 10.3-12.6 5.7l10.6-10.6c1.2 1.3 1.9 3.1 2 4.9z" fill="#fbba8d"/><path d="m26.7 45.3c0 6.6-7.9 9.9-12.6 5.4l10.6-10.5c1.3 1.4 2 3.2 2 5.1z" fill="#fbba8d"/><path d="m47.8 27.4c-2.9 2.9-7.5 2.9-10.5.1 3-3 6.3-6.3 10.6-10.6 2.8 3 2.8 7.6-.1 10.5z" fill="#fbba8d"/><path d="m76 48.4c.7.7.7 1.8 0 2.5l-13 13c-3.1 3.2-7.6 4.7-12 4.1l-2.8-.4c-2.5-.3-4.9.5-6.7 2.3l-7.4 7.4-2.5-2.5 7.4-7.4c1.8-1.8 4.2-2.6 6.7-2.3l2.8.4c4.4.6 8.9-.9 12-4.1l13-13c.6-.7 1.8-.7 2.5 0z" fill="#fbba8d"/><path d="m35.2 76.2-23.3-23.3c-.4-.4-.4-1 0-1.4l43.4-43.4c2.5-2.5 6.6-2.6 9.1-.1 2 2 2.5 5 1.2 7.5 6-.4 9.1 6.7 5.1 11 5.8.1 8.6 7.4 4.2 11.3 5.7.2 8.4 7.3 4.2 11.2l-15.5 15.6c-3.4 3.4-8.1 5-12.8 4.4l-2.8-.4c-2.2-.3-4.3.5-5.8 2l-5.6 5.6c-.5.4-1.1.4-1.4 0zm-21.2-24 21.9 21.8 4.9-4.9c2-2 4.8-2.9 7.5-2.6l2.8.4c4.1.5 8.2-.9 11.1-3.8l15.6-15.6c1.9-1.6 2.1-4.5.5-6.3-1.7-2-4.8-2.1-6.6-.2-.4.4-1 .4-1.4 0s-.4-1 0-1.4l3.4-3.4c1.7-1.6 1.9-4.3.5-6.2-1.7-2.1-4.8-2.2-6.6-.3-.4.4-1 .4-1.4 0s-.4-1 0-1.4l3.1-3.1c2.9-2.7 1.2-7.6-2.8-7.8-1.3-.1-2.5.4-3.4 1.3-.4.4-1 .4-1.4 0-.2-.2-.6-.9 0-1.4l1.4-1.4c1.7-1.6 1.9-4.3.5-6.2-1.7-2-4.8-2.2-6.6-.3z" fill="#302d3d"/><path d="m61.1 39.7-17.8 17.8c-.8.8 0 2.1 1.1 1.8 5-1.5 8.5-.2 10.6-.2 1.4 0 2.8-.6 3.7-1.6l7-7c3-3 3-7.8 0-10.8-1.2-1.2-3.3-1.3-4.6 0z" fill="#fbe2c9"/><path d="m35.8 78-8.5 8.5c-.7.7-1.9.7-2.6 0-2.4-2.3 8.5 8.5-23.2-23.2-.7-.7-.7-1.9 0-2.6.9-.9-3.1 3.2 8.5-8.5.7-.7 1.9-.7 2.6 0 2.4 2.3-8.5-8.5 23.2 23.2.7.7.7 1.9 0 2.6z" fill="#495f9c"/><path d="m23.8 83c-.7.7-1.9.7-2.6 0l-19.7-19.6c-.7-.7-.7-1.9 0-2.6.9-.9-3.1 3.2 8.5-8.5.7-.7 1.9-.7 2.6 0 2 2-7.3-7.2 19.7 19.7.7.7.7 1.9 0 2.6-.8.8 3.1-3.2-8.5 8.4z" fill="#5d7db0"/><path d="m15.7 55.3c19.1 19.1 17.8 17.9 17.9 17.9l-4.7 4.7c-.5.5-1.2.5-1.7 0l-17.1-17c-.5-.5-.5-1.2 0-1.7l3.9-3.9c.4-.4 1.1-.5 1.7 0z" fill="#6c8cbf"/><path d="m94.5 65.8-23.2 23.2c-.7.7-1.9.7-2.6 0l-8.5-8.5c-.7-.7-.7-1.9 0-2.6l23.2-23.2c.7-.7 1.9-.7 2.6 0l8.5 8.5c.7.8.7 1.9 0 2.6z" fill="#5d7db0"/><path d="m63.7 77 8.5 8.5c.7.7 1.9.7 2.6 0l19.7-19.6c.7-.7.7-1.9 0-2.6-.9-.9 3.1 3.1-8.5-8.5-.7-.7-1.9-.7-2.6 0-2 2 7.2-7.2-19.7 19.7-.7.7-.7 1.8 0 2.5z" fill="#87b5e3"/><path d="m85.8 63.4-17 17.1c-.5.5-1.2.5-1.7 0l-4.7-4.7c.1 0-1.2 1.2 17.9-17.9.5-.5 1.2-.5 1.7 0l3.9 3.9c.4.4.4 1.1-.1 1.6z" fill="#d2ddf2"/><path d="m46.4 26c-2 2-5.3 2.3-7.8 0l-10.2-10.2c-2.1-2.1-2.2-5.6 0-7.8s5.6-2.2 7.8 0l10.2 10.2c2.1 2.2 2.1 5.7 0 7.8z" fill="#ffba9c"/><path d="m38.6 33.7c-2.1 2.2-5.6 2.2-7.8 0-6.6-6.6-6.5-6.5-8.7-8.7-2-2.2-1.9-5.7.4-7.7 2.1-1.9 5.4-1.9 7.5.1l8.6 8.6c2.1 2.1 2.1 5.6 0 7.7z" fill="#ffa188"/><path d="m30.9 41.5c-2.1 2.1-5.6 2.1-7.8 0l-7.1-7.2c-2-2.2-1.9-5.7.4-7.7 2.1-1.9 5.4-1.9 7.5.1l7 7c2.1 2.1 2.1 5.6 0 7.8z" fill="#ffa188"/><path d="m23.1 49.2c-2.1 2.1-5.6 2.1-7.7 0l-3.1-3.1c-2.1-2.1-2.1-5.6 0-7.8s5.6-2.1 7.7 0l3.1 3.1c2.2 2.2 2.2 5.7 0 7.8z" fill="#ffa188"/><path d="m46.4 26c-2 2-5.3 2.3-7.8 0-7.5-7.5-7.1-7.1-10.2-10.2-2.1-2.2-2-5.7.2-7.7 2.1-2 5.4-2 7.5-.1.1.1-.6-.6 10.3 10.3 2 2.1 2 5.5 0 7.7z" fill="#ffa188"/><path d="m28.1 30.9c-6.4-6.4-2.4-2.4-5.9-5.9-2-2.2-1.9-5.7.4-7.7 2.1-1.9 5.4-1.9 7.5.1l5.8 5.8c2.1 2.1 2.1 5.6 0 7.7-2.2 2.2-5.7 2.2-7.8 0z" fill="#ffba9c"/><path d="m28.1 38.7c-2.1 2.2-5.6 2.2-7.8 0l-4.3-4.4c-2-2.2-1.9-5.7.4-7.7 2.1-1.9 5.4-1.9 7.5.1l4.2 4.2c2.1 2.2 2.1 5.6 0 7.8z" fill="#ffba9c"/><path d="m20.3 46.4c-2.1 2.1-5.6 2.1-7.7 0-2.2-2-2.4-5.5-.3-7.8 2-2.1 5.5-2.6 8.1 0 2.1 2.2 2.1 5.7-.1 7.8z" fill="#ffba9c"/><path d="m43.6 23.2c-2 2-5.3 2.3-7.8 0-6.8-6.8-5.3-5.3-7.4-7.4-2.1-2.2-2-5.7.2-7.7 2.1-2 5.4-2 7.5-.1l7.5 7.5c2.1 2.1 2.1 5.5 0 7.7z" fill="#ffba9c"/><path d="m37.9 26.7-10.2-10.2c-2.5-2.6-2.3-6.7.3-9.2 2.5-2.4 6.4-2.4 8.9 0l10.2 10.2c2.5 2.5 2.5 6.6 0 9.2-2.6 2.5-6.6 2.5-9.2 0zm-10.1-14.8c0 1.2.5 2.3 1.3 3.2l10.2 10.2c1.7 1.8 4.6 1.8 6.3.1 1.8-1.7 1.8-4.6.1-6.3-1-1.1 3.8 3.8-10.3-10.3-2.7-2.9-7.6-.9-7.6 3.1z" fill="#302d3d"/><path d="m52.7 12.1c-.3.4-1.9 1.9-3.5 3.6-2.1 2-5.4 2-7.5 0l-3.2-3.2c-1.5-1.5-1-4 .9-4.8.7-.3.6-.2 11.2-.2 2.4-.1 3.7 2.8 2.1 4.6z" fill="#ffa188"/><path d="m52.7 12.1c-.1.1-1.9 1.9-2 2-2.1 2.1-5.4 2.1-7.5 0l-3.2-3.1c-.9-.9-1.1-2.2-.6-3.3.7-.3.5-.2 11.2-.2 2.4 0 3.7 2.8 2.1 4.6z" fill="#ffba9c"/><path d="m41 16.4-3.2-3.2c-2-2-1.3-5.4 1.3-6.5 1-.4 1.2-.3 11.5-.3 3.4 0 5.1 4.1 2.7 6.5l-3.5 3.5c-2.4 2.4-6.3 2.4-8.8 0zm-.4-8c-1.7.1-2.5 2.1-1.4 3.3l3.2 3.2c1.7 1.6 4.3 1.6 6 0l3.5-3.5c1.1-1.1.3-3.1-1.3-3.1z" fill="#302d3d"/><circle cx="70.5" cy="78.8" fill="#495f9c" r="3.2"/><path d="m18.5 33.5 3.7 3.7c.2.2.2.6 0 .8l-.9.9c-.2.2-.6.2-.8 0l-3.7-3.7c-.2-.2-.2-.6 0-.8l.9-.9c.2-.2.6-.2.8 0z" fill="#fbceab"/><path d="m25.3 24.8 3.7 3.7c.2.2.2.6 0 .8l-.9.9c-.2.2-.6.2-.8 0l-3.7-3.7c-.2-.2-.2-.6 0-.8l.9-.9c.3-.2.6-.2.8 0z" fill="#fbceab"/><path d="m31.2 14.7 6.7 6.7c.2.2.2.6 0 .8l-1.1 1.1c-.2.2-.6.2-.8 0l-6.7-6.7c-.2-.2-.2-.6 0-.8l1.1-1.1c.2-.2.5-.2.8 0z" fill="#fbceab"/><g fill="#302d3d"><path d="m58.3 23c-.9 0-1.3-1.1-.7-1.7l3.9-3.9c.4-.4 1-.4 1.4 0 .2.2.6.9 0 1.4l-3.9 4c-.2.1-.4.2-.7.2z"/><path d="m62.8 34c-.9 0-1.3-1.1-.7-1.7l3.9-3.9c.4-.4 1-.4 1.4 0 .2.2.6.9 0 1.4l-3.9 3.9c-.2.2-.4.3-.7.3z"/><path d="m67 45.3c-.9 0-1.3-1.1-.7-1.7l3.9-3.9c.4-.4 1-.5 1.4-.1.5.4.5 1.1 0 1.5l-4 3.9c-.1.2-.3.3-.6.3z"/><path d="m24 87.3-23.2-23.2c-1.1-1.1-1.1-2.9 0-4l8.5-8.5c1.1-1.1 2.9-1.1 4 0l23.2 23.2c1.1 1.1 1.1 2.9 0 4l-8.5 8.5c-1.1 1.1-2.9 1.1-4 0zm-12.7-34.6c-.5 0 .1-.5-9.1 8.8-.3.3-.3.8 0 1.2.1.1 23.1 23.2 23.2 23.2.3.3.8.3 1.2 0l8.5-8.5c.3-.3.3-.8 0-1.2-24.7-24.8-23.2-23.5-23.8-23.5z"/><path d="m68 89.7-8.5-8.5c-1.1-1.1-1.1-2.9 0-4l23.2-23.2c1.1-1.1 2.9-1.1 4 0l8.5 8.5c1.1 1.1 1.1 2.9 0 4l-23.2 23.2c-1.1 1.1-2.9 1.1-4 0zm16.7-34.5c-.5 0 1-1.4-23.8 23.5-.3.3-.3.8 0 1.2l8.5 8.5c.3.3.9.3 1.2 0l23.2-23.2c.2-.2.5-.7 0-1.2-9.3-9.3-8.6-8.8-9.1-8.8z"/><path d="m30.2 34.4-8.7-8.7c-2.5-2.6-2.5-6.7.1-9.2s6.7-2.5 9.2.1l8.6 8.6c2.5 2.5 2.5 6.6 0 9.2-2.6 2.6-6.7 2.5-9.2 0zm-4-17.6c-3.9 0-5.9 4.7-3.2 7.6l8.7 8.7c1.7 1.8 4.5 1.9 6.3.3 1.9-1.8 1.9-4.8 0-6.6l-8.6-8.6c-.2-.2-1.3-1.4-3.2-1.4z"/><path d="m22.4 42.2-7.1-7.1c-2.5-2.6-2.5-6.7.1-9.2s6.6-2.4 9.1.1l7 7c2.5 2.5 2.5 6.6 0 9.2-2.5 2.5-6.5 2.5-9.1 0zm-2.4-16.1c-4 0-5.9 4.8-3.2 7.6l7 7c1.7 1.7 4.6 1.8 6.3 0 1.7-1.7 1.8-4.6 0-6.3l-7-7c-.8-.8-1.9-1.3-3.1-1.3z"/><path d="m19.2 51.8c-1.7 0-3.4-.7-4.6-1.9l-3-3c-4.1-4.1-1.1-11 4.6-11.1 1.7 0 3.4.7 4.6 1.9l3 3c4.1 4.1 1.2 11.1-4.6 11.1zm-3-14c-4 0-6 4.9-3.2 7.7l3 3c1.7 1.8 4.6 1.8 6.3.1 1.8-1.8 1.8-4.7 0-6.4l-3-3c-1.4-1.6-3.5-1.4-3.1-1.4z"/><path d="m70.5 83c-2.3 0-4.2-1.9-4.2-4.2s1.9-4.2 4.2-4.2 4.2 1.9 4.2 4.2-1.9 4.2-4.2 4.2zm0-6.5c-1.2 0-2.2 1-2.2 2.2s1 2.2 2.2 2.2 2.2-1 2.2-2.2c0-1.2-1-2.2-2.2-2.2z"/></g></g></svg>