<svg height="512" viewBox="0 0 64 64" width="512" xmlns="http://www.w3.org/2000/svg" xmlns:xlink="http://www.w3.org/1999/xlink"><linearGradient id="linear-gradient" gradientUnits="userSpaceOnUse" x1="14.923" x2="52.129" y1="14.366" y2="51.572"><stop offset="0" stop-color="#f5af19"/><stop offset="1" stop-color="#f12711"/></linearGradient><linearGradient id="linear-gradient-2" x1="14.664" x2="51.797" xlink:href="#linear-gradient" y1="14.664" y2="51.797"/><g id="Up"><path d="m37.03516 30.10107-2.03516-1.88107v13.78c0 3.9637-6 3.96911-6 0v-13.78l-2.03516 1.881c-2.90876 2.69157-6.98779-1.71183-4.07226-4.40625l6.42822-5.9414a3.969 3.969 0 0 1 5.35693-.00147l6.42969 5.94287c2.96551 2.74067-1.2183 7.04299-4.07226 4.40632z" fill="url(#linear-gradient)"/><path d="m32 60a28 28 0 1 1 28-28 28.03146 28.03146 0 0 1 -28 28zm0-50a22 22 0 1 0 22 22 22.02489 22.02489 0 0 0 -22-22z" fill="url(#linear-gradient-2)"/></g></svg>